<svg width="94" height="94" viewBox="0 0 94 94" fill="none" xmlns="http://www.w3.org/2000/svg">
<path d="M51.1287 27.1925C51.1685 28.1244 51.132 29.0463 50.9994 29.9251C51.7422 30.313 52.4651 30.7475 53.1847 31.1852C53.1847 31.0459 53.1847 30.91 53.1814 30.7707C53.1018 28.0912 52.2363 25.6936 51.2183 23.4751C51.1652 23.3557 51.0359 23.2861 50.8999 23.3093C50.7407 23.3392 50.6346 23.4917 50.6645 23.6476L50.6678 23.6575C50.8833 24.8447 51.0922 26.0219 51.1287 27.1925Z" fill="#232533"/>
<path d="M12.3694 29.9284H12.3826C13.918 29.9085 15.3672 30.3794 16.5477 31.1951L16.3189 30.2699C18.8027 31.928 20.6929 35.8809 20.809 36.1263C20.8123 36.1296 20.8123 36.1329 20.8123 36.1362C20.8156 36.1395 20.8156 36.1395 20.8156 36.1395C22.0559 38.0928 23.2232 40.1886 24.7983 42.2346C25.8396 43.5777 27.0931 44.9274 28.7711 46.0018C28.8739 46.0681 28.9767 46.1411 29.0828 46.2041L29.4178 46.3832L30.0976 46.7347C30.5552 46.9569 31.0559 47.116 31.5467 47.2984C31.9745 47.4178 32.4123 47.5206 32.8533 47.6168L32.5316 46.8541C32.4023 46.5821 32.336 46.287 32.2431 46.0051C32.1602 45.7199 32.074 45.4347 31.9944 45.1496L31.8319 44.294C31.7789 44.0088 31.7192 43.7236 31.7026 43.4417C31.6562 42.9609 31.6031 42.4834 31.5965 42.0158C29.6433 42.0489 27.1495 41.4752 25.0902 38.9948L27.637 38.9815C25.5644 37.1742 23.641 34.8164 21.3396 32.7338C20.1325 31.6428 18.7596 30.6181 17.1911 29.9847C16.9954 29.9085 16.8031 29.8256 16.6041 29.7559L15.9939 29.5934C15.596 29.4674 15.1715 29.4442 14.7636 29.3878C14.5613 29.3514 14.3524 29.3646 14.1468 29.3679L13.5366 29.3746C13.1321 29.4177 12.7308 29.4906 12.3395 29.5503C12.2367 29.5636 12.1638 29.6598 12.1803 29.7659C12.1936 29.8587 12.2765 29.9284 12.3694 29.9284Z" fill="#232533"/>
<path d="M58.1523 53.0387C58.2054 52.8099 58.2618 52.5844 58.3181 52.3556C58.4508 51.8118 58.5867 51.2679 58.7028 50.7174L58.925 49.5269L59.0311 48.9333L59.1074 48.3231L59.2533 47.1028C59.2831 46.6883 59.2964 46.2671 59.3163 45.8526C59.3229 45.6437 59.3395 45.4381 59.3395 45.2259L59.3196 44.5858C59.2964 44.158 59.3097 43.7435 59.2433 43.3058C59.0842 41.5946 58.6299 39.8139 57.771 38.2354C56.9253 36.6469 55.7149 35.3337 54.4316 34.319C52.412 32.7206 50.2665 31.739 48.3033 30.6679C48.2967 30.6679 48.2934 30.6646 48.2867 30.6613C48.2768 30.6579 48.2635 30.6513 48.2436 30.6414C47.6467 30.3727 42.8681 28.1808 42.7653 26.4132L43.6143 26.8676C42.9145 25.7865 42.5265 24.4733 42.4635 23.1004C42.4569 23.0009 42.384 22.9147 42.2778 22.9014C42.1618 22.8848 42.0557 22.9678 42.0424 23.0838V23.0871C41.8434 24.5628 42.0092 26.1546 42.6625 27.6004C42.9643 28.3366 43.4219 28.9899 43.8928 29.62C44.3935 30.2268 44.9308 30.8005 45.5012 31.3112C46.6386 32.3525 47.8424 33.2479 48.9765 34.1399C50.0111 34.9557 50.9861 35.7814 51.7919 36.6635L51.4769 33.5894C55.1844 36.8061 54.1398 43.4351 54.1398 43.4351C54.1398 43.7236 54.0635 44.0387 54.027 44.3404L53.9607 44.7914C53.9342 44.944 53.891 45.0998 53.8546 45.2524C53.7816 45.5608 53.7186 45.8659 53.639 46.171L53.3538 47.0995L53.2112 47.5571L53.0355 48.0214L52.6873 48.9466C52.5381 49.3047 52.3789 49.6662 52.2197 50.0243C52.1036 50.2797 51.9909 50.5317 51.8815 50.7837L51.8118 50.9462C51.7389 51.1154 51.6792 51.2944 51.6361 51.4801C51.5266 51.9411 51.5167 52.4053 51.5929 52.8464C51.5963 52.853 51.5963 52.8597 51.5996 52.8696C51.5996 52.8663 51.5963 52.863 51.5963 52.8597C51.5963 52.853 51.5963 52.8497 51.5929 52.8464C51.5167 52.6076 51.4172 52.3755 51.2978 52.1566C51.4437 51.4072 51.3641 50.6047 51.0193 49.8585L51.0126 49.8519C50.8733 49.5501 50.7374 49.2484 50.608 48.9466C50.3229 48.2933 50.0642 47.6433 49.8719 47.0033C49.8719 47.0033 46.3335 41.3426 48.1143 38.9682L49.6696 41.7605C49.6928 41.6709 49.7193 41.5814 49.7492 41.4918C50.0476 40.5434 50.5185 39.5453 51.0624 38.4509C50.8899 38.1027 50.7009 37.7612 50.4986 37.4428C49.9879 36.6304 49.3048 35.798 48.4459 35.3105C48.2038 35.6123 47.9584 35.9174 47.6965 36.2291C46.9337 37.1444 46.0881 38.1624 45.3387 39.3794C44.5826 40.5899 43.989 42.0456 43.664 43.5379C43.3655 44.9042 43.2793 46.2804 43.3191 47.6102C42.4635 47.0431 41.724 46.4064 41.1304 45.6868L40.9646 45.5011C40.9149 45.4348 40.8751 45.3651 40.8287 45.2988L40.5534 44.8909C40.4473 44.7583 40.3909 44.6024 40.308 44.4565L40.0726 44.0055C40.0726 44.0055 36.1363 39.1274 36.448 35.9505L39.1076 38.4708C39.0943 37.9402 39.091 37.3964 39.0943 36.8426C39.0976 35.0021 39.1374 33.0588 38.9584 31.0725C38.7793 29.0927 38.3714 27.05 37.5158 25.1929C36.6801 23.3325 35.4664 21.6943 34.0604 20.3513C32.6444 19.0116 31.0592 17.9438 29.4376 16.992C29.3017 16.9124 29.1226 16.939 29.0165 17.065C28.8971 17.2043 28.9137 17.4132 29.0563 17.5326L29.0629 17.5392C30.4657 18.733 31.7755 20.0064 32.8334 21.4324C33.4336 22.2515 33.9377 23.117 34.3389 24.0123L35.0884 23.1402L35.4266 28.4693L35.4233 28.4626C35.4764 29.3348 35.4499 30.2202 35.3769 31.1089C35.2277 32.83 34.8894 34.581 34.5578 36.4314C34.2262 38.2785 33.9012 40.2582 33.931 42.437C33.9211 42.9775 33.9874 43.5412 34.0405 44.1017C34.0571 44.3835 34.1168 44.6687 34.1698 44.9539L34.3323 45.8095C34.4119 46.0947 34.4981 46.3799 34.581 46.6651C34.6739 46.9469 34.7435 47.2388 34.8695 47.514L35.221 48.343C35.284 48.4823 35.3404 48.6216 35.4067 48.7576L35.6256 49.1489C36.385 50.5516 37.3566 51.7819 38.4211 52.8563C38.9683 53.4101 39.542 53.9241 40.1223 54.4017L41.4289 55.3998C41.8699 55.7082 42.3143 55.9901 42.762 56.2853C42.9875 56.4279 43.2097 56.5804 43.4352 56.7164L44.115 57.101L45.4812 57.8638C45.6869 57.9798 45.9256 58.0893 46.1578 58.1688C48.3696 58.9448 50.7937 57.7742 51.5664 55.5623C51.8251 54.8195 51.8682 54.0502 51.719 53.3306C51.7156 53.3272 51.7156 53.3239 51.7156 53.3173C51.7156 53.314 51.7156 53.3107 51.7123 53.3073C51.7123 53.3107 51.7156 53.3107 51.7156 53.314C51.7156 53.3206 51.7156 53.3239 51.719 53.3306C52.0738 54.3851 52.9493 55.2407 54.1132 55.5192C55.9139 55.9503 57.7212 54.8394 58.1523 53.0387Z" fill="#232533"/>
<path d="M82.7883 41.9594C81.6475 42.4502 80.5001 43.1499 79.4224 44.0652C78.3413 44.9771 77.3365 46.0913 76.4345 47.2852C75.0881 49.0726 73.9474 51.0026 72.8398 52.8198L74.9621 51.5497C72.6839 58.0163 66.0251 60.1552 65.8161 60.2182C65.3718 60.3741 64.9175 60.4901 64.4565 60.5697C64.2675 60.5996 64.0818 60.6228 63.8928 60.636C63.1765 60.709 62.4502 60.699 61.7207 60.6493C61.7008 60.6493 61.6842 60.646 61.6643 60.6493C61.661 60.646 61.661 60.6493 61.661 60.6493C61.7571 60.5929 61.8467 60.5299 61.9362 60.4636L61.9561 60.447C62.3541 60.1552 62.7487 59.8567 63.14 59.5483C64.2774 58.6596 65.385 57.6979 66.4429 56.6268C67.1459 55.8972 67.8324 55.1312 68.4591 54.2723C69.0859 53.4101 69.6563 52.4683 70.1039 51.427C70.5483 50.3891 70.87 49.2483 70.9628 48.081C71.059 46.9171 70.9462 45.7564 70.6876 44.6952C70.1537 42.5663 69.1588 40.8452 68.2071 39.2766C67.4212 37.9866 66.622 36.7795 65.9786 35.5691V35.5658C65.8758 35.4 63.0339 30.6612 64.2177 28.4692L64.8677 29.8852C65.196 28.4825 66.0416 27.1361 67.0862 25.9456C68.217 24.6358 69.5866 23.485 71.0093 22.4139L71.0126 22.4106C71.1154 22.3343 71.1452 22.1951 71.0822 22.0823C71.0159 21.9596 70.8567 21.9132 70.734 21.9828C69.1555 22.8583 67.6002 23.8233 66.1909 25.047C65.4878 25.6604 64.818 26.3336 64.2343 27.1096C63.6507 27.8823 63.1599 28.7677 62.8382 29.7426C62.6691 30.2235 62.5696 30.7342 62.4933 31.2449C62.437 31.7589 62.4071 32.2795 62.4403 32.7935C62.4834 33.8215 62.7023 34.8131 62.9874 35.7515C63.5611 37.6252 64.3935 39.2932 65.0833 40.9049C65.6669 42.2479 66.1643 43.5611 66.3865 44.7848C67.8589 43.707 68.6647 42.5397 68.6647 42.5397C69.7657 44.41 66.5391 48.353 64.9009 50.1603C64.8544 50.21 64.8113 50.2564 64.7715 50.3029C64.5892 50.5217 64.3869 50.734 64.1713 50.9396C64.0984 51.0158 64.0453 51.0689 64.0221 51.0921C64.0155 51.0954 64.0088 51.1021 64.0055 51.1021C63.5645 51.5332 63.0803 51.9444 62.5696 52.3324C61.7041 52.989 60.7689 53.6058 59.7873 54.1828C59.3496 54.4414 58.8986 54.6935 58.4443 54.9389C58.3183 55.0085 58.1757 55.0947 58.053 55.1843C56.5972 56.2554 56.2855 58.3081 57.3566 59.7639C58.0132 60.6593 59.0412 61.1235 60.0725 61.097C58.882 61.8232 57.9601 63.3221 57.8474 64.9006C57.7048 66.9069 58.9318 68.2765 60.5865 67.9614H60.5899C61.472 67.789 62.3673 67.5768 63.276 67.2816C63.7071 67.139 64.1448 66.9799 64.5825 66.7975C65.9488 66.2105 67.3515 65.3815 68.6415 64.2706C69.9315 63.1663 71.0723 61.8 71.9743 60.3906C72.8829 58.978 73.5892 57.5487 74.2127 56.1658C75.4529 53.3935 76.398 50.7572 77.698 48.3331C78.3446 47.1293 79.0841 45.9852 79.9463 44.9638C80.8085 43.9391 81.7934 43.0471 82.8579 42.3142C82.9309 42.2645 82.9773 42.165 82.9674 42.0755C82.9574 41.9727 82.8778 41.9196 82.7883 41.9594Z" fill="#232533"/>
<path d="M23.2994 45.9487C23.2761 45.8791 23.2529 45.8128 23.2264 45.7431C23.054 45.2623 22.8351 44.798 22.603 44.3503C22.3576 43.9093 22.0989 43.4815 21.7971 43.1001C21.2135 42.3308 20.5403 41.7074 19.8505 41.2199C19.1575 40.7291 18.4511 40.3643 17.7348 40.0725C17.2673 39.8835 17.1777 40.2383 17.6453 40.5832C19.5322 41.9826 20.464 43.9988 20.464 43.9988L20.3745 42.4568C21.0477 43.0968 21.4191 44.3868 21.6214 45.6967C22.1752 45.7862 22.7356 45.8658 23.2994 45.9487Z" fill="#232533"/>
<path d="M40.58 62.6456C40.1058 61.0837 39.5288 59.482 38.7296 57.8339L38.2919 56.9916C38.1459 56.7097 38.0033 56.4345 37.821 56.1526L37.3036 55.3268L37.0417 54.9156L36.7465 54.521C36.3486 54.0004 35.9639 53.4731 35.5162 53.0188L34.8629 52.329C34.6408 52.1201 34.4119 51.9212 34.1864 51.7222C33.2811 50.9164 32.3626 50.3493 31.4838 49.8651C31.046 49.6429 30.6182 49.4539 30.1938 49.2649C29.7859 49.119 29.3647 48.9499 28.9668 48.8272C27.3651 48.3264 25.9027 48.0877 24.4867 47.8721C21.6745 47.4443 19.0084 47.1824 16.3587 45.9686C15.0422 45.3618 13.7423 44.4929 12.5485 43.2925C11.348 42.102 10.2802 40.5931 9.36163 38.9483L9.35831 38.9384C9.27873 38.7991 9.14608 38.7129 9.03665 38.7427C8.91726 38.7792 8.87747 38.9483 8.94711 39.1208C9.68661 40.9148 10.6516 42.7122 11.8852 44.3006C13.1122 45.8957 14.5846 47.2288 16.0835 48.2402C17.589 49.2616 19.1178 49.9978 20.6034 50.6113C22.0891 51.2281 23.5449 51.7255 24.9542 52.2395C25.4152 52.4086 25.8728 52.5777 26.3205 52.7568L23.7206 50.2962C30.0014 52.1997 32.5748 56.8954 32.7306 57.1872C32.734 57.1905 32.734 57.1938 32.734 57.1972L32.7373 57.2005C33.1783 57.8803 33.5199 58.6264 33.815 59.4986C34.0671 60.248 34.2627 61.0704 34.4219 61.926L33.9941 61.8862C33.7056 61.8431 33.4204 61.7867 33.1319 61.737C32.9893 61.7105 32.8401 61.6939 32.7008 61.6607L32.283 61.5447C32.011 61.4618 31.7126 61.4153 31.4539 61.2959C31.4539 61.2959 26.3039 60.258 24.218 55.1411L25.9259 56.1459C25.6838 55.6784 25.455 55.1809 25.2361 54.6703C24.0887 54.1131 23.0375 53.367 21.8901 52.8066C22.2416 54.4547 22.6495 56.1625 23.2928 57.9201C23.9262 59.6478 24.8415 61.4253 26.0751 62.9408C27.3021 64.4629 28.7877 65.6468 30.2767 66.5023C30.6514 66.7477 31.0228 66.9003 31.4009 67.0959L31.9646 67.3778C32.1536 67.4607 32.3393 67.5303 32.525 67.6066C32.8998 67.7525 33.2778 67.9084 33.6525 68.0443L34.7668 68.3892L35.3239 68.5583L35.8744 68.6844L36.9787 68.9397C37.7082 69.0823 38.4278 69.1851 39.1574 69.3078C40.8486 69.5897 42.2116 68.177 42.2049 66.1475C42.1983 64.7514 41.5417 63.4249 40.58 62.6456Z" fill="#232533"/>
<path d="M72.7037 45.5541C72.77 45.3817 73.7317 42.9211 75.7015 41.4653L74.9156 43.3124C74.9454 43.2858 74.9786 43.2593 75.0118 43.2328C75.6584 42.7088 76.3548 42.1882 77.0612 41.6178C77.7609 41.0541 78.4805 40.4373 79.1304 39.7077C79.7705 38.9815 80.3442 38.1226 80.6559 37.214C80.9842 36.312 81.0837 35.4133 81.0505 34.5809C81.0505 34.4483 80.9411 34.3687 80.8184 34.3985C80.7023 34.4251 80.6161 34.5279 80.5995 34.6373L80.5962 34.6472C80.4635 35.4498 80.2148 36.2423 79.8169 36.9288C79.4289 37.6185 78.8817 38.1856 78.2749 38.6664C77.0479 39.6347 75.5689 40.2748 74.0269 41.1204C73.2774 41.525 72.5047 41.9859 71.7288 42.5795C72.0736 43.3356 72.3688 44.1447 72.591 45.0235C72.6341 45.1993 72.6739 45.3717 72.7037 45.5541Z" fill="#232533"/>
<path d="M63.9124 66.2736C63.8825 66.5455 63.3387 66.7345 63.2956 67.0031C63.2889 67.0396 63.2856 67.0794 63.2823 67.1159C63.2624 67.3447 63.2922 67.5702 63.2425 67.799C63.1861 68.0676 63.2193 68.3362 63.1496 68.5982C63.08 68.8602 62.8446 69.0525 62.7617 69.3112C62.6754 69.5698 63.2558 70.0606 63.1596 70.3126C63.0601 70.5647 62.7418 70.7371 62.6323 70.9825C62.5229 71.2312 62.0653 71.3075 61.9426 71.5496C61.8199 71.7917 61.9558 72.1631 61.8199 72.3985C61.6839 72.634 61.9094 73.0982 61.7602 73.327C61.6143 73.5559 61.0207 73.4829 60.8615 73.7051C60.699 73.9239 60.7355 74.292 60.5664 74.5043C60.3939 74.7132 59.9429 74.68 59.7605 74.8823C59.5781 75.0846 59.7705 75.6417 59.5781 75.8341C59.3858 76.0264 58.706 75.6981 58.5037 75.8805C58.3014 76.0629 58.6065 76.8322 58.3976 77.0047C58.1854 77.1738 57.741 77.0544 57.5221 77.2136C57.2999 77.3761 56.776 77.0644 56.5472 77.2103C56.3217 77.3595 56.1161 77.4921 55.8806 77.6281C55.6485 77.7641 55.5954 78.1952 55.3533 78.3179C55.1113 78.4406 54.9521 78.7224 54.7034 78.8352C54.458 78.9446 54.0169 78.5533 53.7616 78.6495C53.5096 78.749 53.3106 78.9214 53.0519 79.0043C52.7933 79.0905 52.5512 79.137 52.2892 79.2099C52.0272 79.2796 51.7719 79.2663 51.5066 79.3227C51.2413 79.379 51.0025 79.4155 50.7339 79.4586C50.4653 79.5017 50.2962 80.2346 50.0276 80.2645C49.759 80.291 49.4406 79.5913 49.1687 79.6045C48.9001 79.6178 48.658 80.6027 48.3828 80.6027C48.1108 80.6027 47.8489 79.9793 47.5803 79.966C47.3083 79.9494 46.9933 80.4601 46.7247 80.4336C46.4528 80.4037 46.1643 80.3772 45.899 80.3374C45.6304 80.2943 45.3883 80.039 45.123 79.9826C44.8544 79.9262 44.5626 79.9428 44.3039 79.8731C44.0386 79.8035 43.7202 79.8731 43.4616 79.7902C43.2029 79.7073 43.246 78.7854 42.994 78.686C42.7387 78.5898 42.3275 78.9115 42.0787 78.802C41.83 78.6926 41.7305 78.298 41.4885 78.1753C41.2464 78.0526 40.8982 78.1487 40.6627 78.0128C40.4273 77.8768 40.3875 77.4523 40.162 77.3064C39.9332 77.1572 39.7541 76.9848 39.5352 76.8256C39.3131 76.6631 39.1075 76.5271 38.8985 76.358C38.6863 76.1856 37.7976 76.8057 37.5953 76.6233C37.393 76.4409 37.4825 75.9269 37.2935 75.7346C37.1012 75.5422 37.0548 75.2073 36.8724 75.0083C36.69 74.8061 36.4844 74.627 36.3119 74.4181C36.1428 74.2058 36.2688 73.778 36.1096 73.5592C35.9472 73.3403 34.9855 73.6686 34.8362 73.4398C34.6903 73.211 34.9258 72.7268 34.7865 72.4914C34.6539 72.2559 34.5942 71.9707 34.4715 71.7286C34.3488 71.4899 34.5411 71.1019 34.4317 70.8532C34.3189 70.6045 34.1233 70.4055 34.0271 70.1535C33.9309 69.8981 33.7452 69.6826 33.6623 69.4239C33.5794 69.1653 33.533 68.9033 33.4634 68.638C33.3937 68.376 33.4998 68.0842 33.4435 67.8156C33.3871 67.5536 32.9659 67.3579 32.9228 67.0893C32.883 66.8207 32.7172 66.5621 32.6907 66.2901C32.6608 66.0215 32.3624 65.7529 32.3491 65.481C32.3359 65.2124 32.3093 64.9139 32.3093 64.642C32.3093 64.3668 33.1052 64.1114 33.1218 63.8395C33.135 63.5676 33.0754 63.3023 33.1019 63.0337C33.1284 62.7617 32.8465 62.4533 32.8897 62.1847C32.9328 61.9161 33.271 61.7039 33.3274 61.4386C33.3838 61.1733 32.7205 60.7223 32.7902 60.4636C32.8598 60.1983 33.3208 60.0325 33.4037 59.7739C33.4899 59.5152 34.0404 59.4257 34.1365 59.1737C34.236 58.9183 34.5278 58.7691 34.6373 58.5204C34.75 58.2717 34.7202 57.9831 34.8462 57.7444C34.9689 57.499 34.6373 57.0181 34.7732 56.7827C34.9092 56.5472 35.6354 56.6865 35.7847 56.4577C35.9306 56.2322 35.4696 55.5922 35.6288 55.3733C35.788 55.1545 35.8643 54.8527 36.0334 54.6405C36.2058 54.4282 36.491 54.2989 36.6734 54.0966C36.8558 53.8943 37.5489 54.1895 37.7412 53.9971C37.9335 53.8081 37.5721 53.0387 37.7744 52.8564C37.9733 52.674 38.6034 52.9956 38.8156 52.8265C39.0279 52.6541 38.7559 51.8516 38.9748 51.6891C39.1937 51.5299 39.4623 51.4039 39.6911 51.258C39.9199 51.1087 40.5633 51.636 40.7987 51.5C41.0342 51.3641 41.1668 51.0756 41.4089 50.9529C41.651 50.8302 41.6112 50.1006 41.8599 49.9879C42.1086 49.8784 42.4899 50.0476 42.7453 49.9514C42.9973 49.8552 43.3289 49.9647 43.5876 49.8784C43.8463 49.7955 43.9424 49.1224 44.2077 49.0527C44.4697 48.9798 44.8312 49.2384 45.0965 49.182C45.3617 49.1257 45.6237 48.9599 45.8923 48.9168C46.1609 48.8736 46.5091 49.4175 46.7811 49.3876C47.0497 49.3611 47.3216 49.5734 47.5935 49.5601C47.8621 49.5468 48.1108 49.4374 48.3828 49.4374C48.658 49.4374 48.9598 48.4956 49.2284 48.5122C49.5036 48.5254 49.686 49.6861 49.9546 49.7159C50.2266 49.7425 50.6411 48.6581 50.9097 48.7012C51.1783 48.7443 51.2678 49.7723 51.5331 49.8287C51.7984 49.8851 52.0339 49.9746 52.2958 50.0443C52.5578 50.1172 52.7601 50.2963 53.0188 50.3792C53.2774 50.4621 53.8379 49.6795 54.0899 49.779C54.3452 49.8751 54.3021 50.681 54.5508 50.7904C54.7995 50.9031 55.4561 50.1603 55.6982 50.283C55.9403 50.409 56.136 50.6677 56.3714 50.8036C56.6069 50.9396 56.6433 51.4238 56.8688 51.573C57.0976 51.7222 57.2137 52.024 57.4326 52.1865C57.6514 52.3457 58.1157 52.1931 58.3246 52.3622C58.5369 52.5347 58.3545 53.1614 58.5568 53.3438C58.759 53.5262 58.9746 53.6655 59.1669 53.8578C59.3593 54.0502 59.7174 54.0701 59.8965 54.2724C60.0789 54.4746 60.7686 54.2624 60.9411 54.4713C61.1102 54.6836 60.7255 55.3402 60.8847 55.559C61.0439 55.7779 61.475 55.8144 61.6242 56.0432C61.7734 56.2687 61.8961 56.524 62.0321 56.7595C62.1681 56.9949 62.0387 57.3763 62.1647 57.6184C62.2874 57.8604 62.44 58.0826 62.5527 58.3313C62.6622 58.5801 62.7285 58.842 62.828 59.0974C62.9241 59.3494 63.1994 59.5384 63.2823 59.8004C63.3652 60.0557 63.8361 60.2182 63.9057 60.4802C63.9754 60.7422 63.4514 61.1567 63.5078 61.4253C63.5642 61.6906 63.3552 61.9924 63.3984 62.261C63.4415 62.5296 63.269 62.8015 63.2956 63.0735C63.3188 63.2757 63.5542 63.4548 63.6703 63.6472C63.7068 63.7068 63.7333 63.7699 63.7366 63.8362C63.7532 64.1048 63.72 64.3668 63.72 64.642C63.72 64.9139 63.8394 65.1792 63.8228 65.4511C63.8096 65.7231 63.9389 66.0049 63.9124 66.2736Z" fill="url(#paint0_radial)"/>
<path d="M59.0874 68.7242C56.0266 70.7636 53.0089 67.789 50.2863 63.7035C47.5638 59.6213 46.171 55.9769 49.2384 53.9341C52.2992 51.8947 56.985 53.5461 59.7109 57.6316C62.4334 61.7105 62.1549 66.6781 59.0874 68.7242Z" fill="url(#paint1_linear)"/>
<path d="M58.9448 62.8579C58.59 67.537 54.7996 64.8377 49.9083 64.4629C45.0169 64.0915 40.8717 66.1907 41.2199 61.5082C41.5781 56.8291 45.836 53.3372 50.7274 53.7119C55.6187 54.0833 59.2997 58.1788 58.9448 62.8579Z" fill="url(#paint2_linear)"/>
<path d="M59.7771 64.4463C58.2517 67.6133 55.9038 64.4861 52.0538 62.6291C48.1971 60.7687 44.2873 60.8881 45.8128 57.7212C47.3382 54.5509 51.7023 53.4864 55.5556 55.3468C59.4123 57.2071 61.3026 61.2794 59.7771 64.4463Z" fill="url(#paint3_linear)"/>
<path d="M60.6757 62.9474C60.5132 67.5403 55.3433 71.1781 53.5194 71.7286C50.9892 71.3506 47.6598 70.1999 47.6598 70.1999C45.6535 66.0116 46.4627 62.4666 47.5669 60.1552C47.7327 59.807 47.9052 59.4853 48.0776 59.1968C48.9664 59.6909 52.5677 60.845 55.3666 61.936C56.819 62.5031 58.8684 63.2525 60.6757 62.9474Z" fill="white"/>
<path d="M55.5987 71.785C55.088 71.8944 54.3452 71.8513 53.5195 71.7286C54.8658 71.3207 57.4093 69.5466 58.7093 66.7942C59.3659 65.4014 58.623 63.7665 57.1407 63.3487C57.1308 63.3454 57.1208 63.342 57.1109 63.3387C56.4443 63.1497 55.6849 62.8711 54.8957 62.5462C52.1167 61.4054 48.9664 59.6876 48.0776 59.1935C48.8072 57.9632 49.497 57.2701 49.497 57.2701C49.497 57.2701 52.5843 59.0178 55.2505 60.1121C55.8938 60.3774 56.5107 60.6029 57.0545 60.7587C57.6216 60.9212 58.1057 61.0041 58.4606 60.9743C60.5696 60.7952 61.2561 60.1618 61.2561 60.1618C61.601 61.1169 61.7767 62.0288 61.8132 62.891C62.0254 68.0377 57.3729 71.4103 55.5987 71.785Z" fill="#D1D3D4"/>
<path d="M57.0908 63.6173C56.4541 66.8406 53.5127 69.4737 53.5127 69.4737C53.5127 69.4737 53.8476 66.8837 54.4843 63.6604C54.7496 62.3207 55.0216 61.0904 55.2504 60.1121C55.8937 60.3774 56.5105 60.6029 57.0544 60.7588C57.2334 61.5978 57.2964 62.5727 57.0908 63.6173Z" fill="#58595B"/>
<path d="M56.8754 63.5775C57.2234 63.5775 57.5055 63.2954 57.5055 62.9474C57.5055 62.5994 57.2234 62.3173 56.8754 62.3173C56.5275 62.3173 56.2454 62.5994 56.2454 62.9474C56.2454 63.2954 56.5275 63.5775 56.8754 63.5775Z" fill="white"/>
<path d="M55.8838 63.7997C56.0065 63.7997 56.106 63.7002 56.106 63.5775C56.106 63.4548 56.0065 63.3553 55.8838 63.3553C55.7611 63.3553 55.6616 63.4548 55.6616 63.5775C55.6616 63.7002 55.7611 63.7997 55.8838 63.7997Z" fill="white"/>
<path d="M46.9072 51.7255L47.2422 49.9646C47.2422 49.9646 62.8746 61.5646 56.2456 58.5933C48.1143 54.9488 32.8533 52.853 35.0122 39.2501C35.0951 48.0512 46.9072 51.7255 46.9072 51.7255ZM59.8104 58.9415C59.8104 58.9415 69.361 55.5524 70.3028 45.5541C70.3028 45.5541 69.235 49.2517 66.8473 51.9543L66.2206 50.6345C66.2173 50.6378 64.5227 54.9322 59.8104 58.9415ZM55.6619 36.5176C57.5555 44.1613 55.9338 48.7343 54.8727 50.7041C55.1645 50.5284 55.5293 50.1968 55.6984 50.283C55.9405 50.409 56.1361 50.6677 56.3716 50.8036C56.607 50.9396 56.6435 51.4237 56.869 51.573C57.0978 51.7222 57.2139 52.024 57.4328 52.1865C57.4792 52.2196 57.5355 52.2395 57.5986 52.2495C60.1653 41.3923 55.6619 36.5176 55.6619 36.5176ZM23.5747 39.4723C23.5747 39.4723 26.4233 45.4414 32.0774 46.9071C32.0774 46.9071 31.3246 45.5243 31.1356 43.9756C31.1356 43.9756 29.1028 43.9789 27.6602 42.9841L28.35 42.742C28.35 42.7387 25.7534 42.3408 23.5747 39.4723ZM68.2899 62.6357V61.6939C66.728 62.9209 64.9008 63.4349 63.6705 63.6471C63.7069 63.7068 63.7335 63.7698 63.7368 63.8361C63.7534 64.1048 63.7202 64.3667 63.7202 64.642C63.7202 64.9139 63.8396 65.1792 63.823 65.4511C63.8097 65.723 63.9391 66.0049 63.9125 66.2735C63.8827 66.5455 63.3388 66.7345 63.2957 67.0031C63.2891 67.0396 63.2858 67.0794 63.2825 67.1158C72.183 63.3785 74.1628 55.5822 74.2258 55.3236C71.7122 59.8435 68.2899 62.6357 68.2899 62.6357ZM34.0472 54.4481L32.8533 54.5741C36.2259 58.4706 36.4779 61.0837 37.4827 63.352C36.9687 66.562 43.1268 64.8045 40.58 62.6456C35.5494 49.6065 25.2925 48.5121 25.2925 48.5121C30.6547 50.2432 34.0472 54.4481 34.0472 54.4481ZM46.8044 38.4907C46.8044 38.4907 43.422 42.5895 44.1416 47.6168L44.9209 45.5541L46.4363 48.5121C46.433 48.5121 44.7617 43.3422 46.8044 38.4907ZM33.102 63.0336C33.1219 62.8446 32.9893 62.639 32.9263 62.44C27.9388 61.2926 26.022 58.8652 25.8861 58.6861C27.1827 61.4253 29.9417 63.1165 29.9417 63.1165L28.9369 63.352C30.0777 64.4496 31.3279 65.1825 32.3957 65.66C32.3692 65.6003 32.3526 65.5407 32.3493 65.481C32.336 65.2124 32.3095 64.9139 32.3095 64.642C32.3095 64.3667 33.1054 64.1114 33.1219 63.8395C33.1352 63.5675 33.0755 63.3022 33.102 63.0336Z" fill="url(#paint4_radial)"/>
<defs>
<radialGradient id="paint0_radial" cx="0" cy="0" r="1" gradientUnits="userSpaceOnUse" gradientTransform="translate(48.1138 64.5587) scale(15.9248)">
<stop stop-color="#00B5F1"/>
<stop offset="0.6221" stop-color="#096680"/>
<stop offset="0.9441" stop-color="#043D50"/>
<stop offset="1" stop-color="#023649"/>
</radialGradient>
<linearGradient id="paint1_linear" x1="60.9017" y1="56.8429" x2="49.5851" y2="64.3832" gradientUnits="userSpaceOnUse">
<stop stop-color="white"/>
<stop offset="1" stop-color="white" stop-opacity="0"/>
</linearGradient>
<linearGradient id="paint2_linear" x1="50.825" y1="52.307" x2="49.7768" y2="66.0955" gradientUnits="userSpaceOnUse">
<stop stop-color="white"/>
<stop offset="1" stop-color="white" stop-opacity="0"/>
</linearGradient>
<linearGradient id="paint3_linear" x1="56.0381" y1="54.3725" x2="51.5413" y2="63.7071" gradientUnits="userSpaceOnUse">
<stop stop-color="white"/>
<stop offset="1" stop-color="white" stop-opacity="0"/>
</linearGradient>
<radialGradient id="paint4_radial" cx="0" cy="0" r="1" gradientUnits="userSpaceOnUse" gradientTransform="translate(53.2368 49.3885) scale(18.9339)">
<stop stop-color="#00B5F1"/>
<stop offset="0.6221" stop-color="#096680"/>
<stop offset="0.9441" stop-color="#043D50"/>
<stop offset="1" stop-color="#023649"/>
</radialGradient>
</defs>
</svg>
