<svg width="26" height="24" viewBox="0 0 26 24" fill="none" xmlns="http://www.w3.org/2000/svg">
<path d="M21.252 3.97087C21.419 4.14196 21.9292 4.03643 22.0837 4.21471C22.2398 4.39538 22.4978 4.53289 22.6406 4.71916C22.7851 4.90783 22.811 5.20523 22.9421 5.4003C23.074 5.59696 22.8243 6.02307 22.9421 6.22533C23.0615 6.42919 23.4147 6.51953 23.5199 6.72898C23.626 6.93924 23.6802 7.18227 23.7721 7.39733C23.8648 7.61398 23.9783 7.83143 24.0568 8.05128C24.1353 8.27273 24.1336 8.52455 24.1979 8.7492C24.2622 8.97464 24.4376 9.1825 24.4877 9.41035C24.5378 9.63899 24.2798 9.92279 24.3148 10.153C24.3508 10.3841 25.0288 10.556 25.0497 10.7878C25.0705 11.0204 24.562 11.2979 24.5687 11.5305C24.5754 11.7639 24.0259 11.9806 24.0176 12.2132C24.0092 12.4459 24.2447 12.6713 24.2222 12.9032C24.1996 13.135 24.4685 13.3948 24.4309 13.6259C24.3933 13.8561 24.2364 14.0632 24.1846 14.2918C24.1328 14.5196 24.0184 14.7251 23.9524 14.9497C23.8865 15.1736 24.3725 15.5733 24.2923 15.794C24.2121 16.0138 23.2744 15.9187 23.1801 16.1345C23.0865 16.3488 23.2535 16.6566 23.1458 16.8668C23.0389 17.0755 22.9721 17.2953 22.8511 17.4984C22.7308 17.6999 22.2381 17.6615 22.1045 17.8574C21.9718 18.0516 22.8202 18.9038 22.674 19.0917C22.5296 19.278 21.7288 18.9846 21.5718 19.1645C21.4157 19.3419 21.6829 19.8904 21.5142 20.0606C21.3472 20.2285 20.422 19.6545 20.2433 19.8152C20.0646 19.9751 20.4203 20.6906 20.2341 20.8385C20.0454 20.988 19.4508 20.6163 19.2563 20.7538C19.0592 20.8921 18.9089 21.04 18.7052 21.1655C18.4998 21.2918 18.4363 21.5988 18.2242 21.7123C18.0113 21.8266 17.6397 21.59 17.4217 21.6907C17.2021 21.7923 17.3558 22.6645 17.1312 22.7532C16.9049 22.8419 16.398 22.1784 16.1675 22.2535C15.9362 22.3287 16.0515 23.4791 15.8168 23.5407C15.5814 23.6022 15.0887 22.6533 14.8507 22.7012C14.6119 22.7492 14.4257 22.9411 14.1852 22.9746C13.9439 23.009 13.7844 23.7205 13.5422 23.7405C13.2992 23.7605 13.0279 23.5862 12.7849 23.5926C12.541 23.599 12.2972 23.2832 12.0542 23.276C11.8112 23.2688 11.5006 24.0211 11.2584 23.9995C11.0163 23.978 10.8601 23.1689 10.6197 23.1329C10.3792 23.097 9.97501 23.8197 9.73703 23.7701C9.49905 23.7205 9.29948 23.4 9.06484 23.3368C8.83103 23.2736 8.62478 23.0642 8.39432 22.9874C8.16469 22.9107 7.8407 23.0138 7.61524 22.9243C7.39146 22.8347 7.58351 21.8698 7.36474 21.7675C7.14679 21.6651 6.76435 21.901 6.55226 21.7851C6.34183 21.6699 5.91347 21.8874 5.70805 21.7595C5.50514 21.6324 5.75314 20.8953 5.55691 20.7562C5.36235 20.6179 4.87219 20.8585 4.68515 20.7074C4.49977 20.5579 4.56992 20.1494 4.39206 19.9879C4.2167 19.828 3.93446 19.7896 3.76746 19.6185C3.60046 19.4475 2.80719 19.788 2.65271 19.6098C2.49656 19.4291 3.0293 18.7208 2.88651 18.5337C2.74205 18.345 2.71867 18.0988 2.58757 17.9037C2.45564 17.7071 1.97801 17.7198 1.85943 17.5176C1.74003 17.3137 1.58388 17.1235 1.47867 16.914C1.37262 16.7037 0.950096 16.611 0.858244 16.396C0.765556 16.1793 1.35174 15.7148 1.27325 15.495C1.19476 15.2735 0.446578 15.2447 0.382281 15.0209C0.317984 14.7955 0.578511 14.4797 0.52841 14.2518C0.478309 14.0232 0.479144 13.7817 0.443238 13.5515C0.407332 13.3205 0.14096 13.1054 0.120084 12.8736C0.0992087 12.6409 0.89248 12.3707 0.886635 12.1381C0.879954 11.9046 0.307129 11.6832 0.315479 11.4497C0.32383 11.2171 0.481649 10.9933 0.505029 10.7614C0.527575 10.5296 1.17054 10.3937 1.20812 10.1634C1.24569 9.93319 -0.0502602 9.46631 0.00151112 9.23846C0.0532825 9.01062 1.21313 9.0418 1.27909 8.81715C1.34506 8.59331 1.46363 8.41503 1.5438 8.19438C1.62396 7.97453 1.41353 7.67154 1.50706 7.45569C1.60058 7.24143 0.985167 6.7066 1.09288 6.49714C1.19977 6.28849 2.11913 6.48355 2.24021 6.27969C2.36045 6.07823 1.94461 5.56338 2.07821 5.36752C2.21098 5.17325 2.14668 4.8159 2.29281 4.62802C2.43727 4.44175 2.75291 4.34902 2.91073 4.16994C3.06688 3.99246 3.87852 4.37939 4.04719 4.20991C4.2142 4.04203 4.37619 3.90932 4.55572 3.74863C4.73442 3.58874 4.5432 3.04831 4.72941 2.90041C4.91812 2.75091 4.8772 2.30002 5.0726 2.16251C5.26967 2.02421 5.78237 2.30961 5.98611 2.1841C6.19153 2.05779 6.56896 2.23686 6.78022 2.12334C6.99315 2.00902 6.8846 1.31909 7.10337 1.21836C7.32298 1.11683 7.63445 1.19438 7.85907 1.10644C8.08536 1.0177 8.38346 1.13042 8.61393 1.05527C8.84523 0.980125 8.88782 0.2878 9.12162 0.226242C9.3571 0.164684 9.61094 0.0519617 9.84893 0.00399453C10.0877 -0.0439726 10.4284 0.356553 10.6689 0.322976C10.9102 0.288599 11.2217 0.984122 11.4639 0.964136C11.7068 0.94415 11.8922 0.340564 12.1352 0.334168C12.379 0.327773 12.6262 0.096731 12.87 0.104725C13.113 0.11272 13.3569 0.235836 13.599 0.257421C13.8412 0.279006 14.0282 0.671537 14.2687 0.706713C14.5092 0.742688 14.7964 0.486863 15.0344 0.536429C15.2724 0.585996 15.5246 0.585995 15.7592 0.649152C15.993 0.712309 16.3011 0.584397 16.5316 0.661144C16.7612 0.737891 17.0986 0.609979 17.324 0.700317C17.5478 0.789856 17.8284 0.840221 18.048 0.943351C18.2659 1.04568 18.3177 1.49817 18.5306 1.61409C18.7411 1.72921 19.1344 1.6005 19.339 1.72761C19.5419 1.85473 19.6404 2.16811 19.8366 2.30802C20.0312 2.44632 19.8366 3.0571 20.0237 3.2074C20.209 3.3569 21.0215 2.84924 21.1994 3.01073C21.3764 3.17142 21.085 3.79979 21.252 3.97087Z" fill="#F2CB15"/>
<path d="M23.1449 11.8406C23.1449 12.1037 23.6234 12.3819 23.6033 12.6401C23.5833 12.9023 23.3637 13.1525 23.3236 13.4084C23.2827 13.6682 22.8126 13.8377 22.7525 14.0903C22.6915 14.3461 23.7403 14.9001 23.6601 15.148C23.58 15.3982 22.7909 15.443 22.6915 15.6852C22.5913 15.929 22.6088 16.2312 22.4903 16.4655C22.3717 16.7013 22.6464 17.1714 22.5103 17.3968C22.3734 17.6231 22.0335 17.775 21.8799 17.99C21.7262 18.2059 21.2878 18.2474 21.1183 18.4513C20.948 18.6552 20.7376 18.8382 20.5522 19.0293C20.3668 19.2204 19.7982 19.0293 19.5986 19.2068C19.399 19.3843 19.1878 19.4994 18.9748 19.6625C18.7619 19.8248 18.4521 19.7928 18.2266 19.9399C18.002 20.087 18.2091 20.8521 17.9728 20.9824C17.7373 21.1127 17.2229 20.7082 16.9775 20.8217C16.7328 20.9344 16.914 21.9889 16.6601 22.0848C16.4071 22.1799 15.9905 21.9089 15.7291 21.9865C15.4702 22.0632 15.0494 21.522 14.783 21.5796C14.5192 21.6371 14.4858 22.9498 14.2152 22.989C13.9472 23.0274 13.5889 22.7388 13.3151 22.7579C13.0453 22.7771 12.7355 23.0138 12.4608 23.0138C12.1861 23.0138 11.8897 22.6037 11.62 22.5853C11.3461 22.5661 11.1382 21.9745 10.8709 21.9361C10.5996 21.8969 10.3783 21.7378 10.1144 21.6803C9.84721 21.6219 9.6944 21.3061 9.43555 21.2294C9.17418 21.1526 8.43352 22.3758 8.18051 22.2815C7.92583 22.1855 7.73127 21.8426 7.48661 21.7291C7.24028 21.6155 7.10166 21.2478 6.86619 21.1175C6.62988 20.9864 6.54554 20.609 6.32092 20.4619C6.09546 20.3148 6.17145 19.8088 5.95852 19.6465C5.74559 19.4834 5.59195 19.3107 5.39238 19.1332C5.19281 18.9558 4.13233 19.5937 3.94696 19.4026C3.76158 19.2116 3.89017 18.7167 3.72066 18.5129C3.55116 18.309 3.3925 18.0756 3.23802 17.8597C3.08438 17.6447 3.54281 17.0698 3.40586 16.8436C3.26975 16.6182 2.403 16.7669 2.28443 16.531C2.16669 16.2968 2.73284 15.7755 2.63263 15.5317C2.53327 15.2895 2.73284 14.9865 2.65184 14.7362C2.57168 14.4884 2.39799 14.3077 2.33787 14.0519C2.27775 13.7993 2.09822 13.6002 2.05814 13.3412C2.01806 13.0846 2.33787 12.8296 2.31783 12.5681C2.29779 12.3099 1.42352 12.1021 1.42352 11.839C1.42352 11.576 1.74668 11.3298 1.76672 11.0716C1.78676 10.8093 2.14415 10.6119 2.18423 10.3553C2.22514 10.0954 1.6281 9.73728 1.68822 9.48465C1.74918 9.22882 2.39799 9.13849 2.47732 8.88986C2.55748 8.63963 2.0406 8.20233 2.13997 7.96009C2.24017 7.71626 1.99885 7.30295 2.11659 7.06871C2.23516 6.83287 2.51656 6.6418 2.65267 6.41635C2.78962 6.19011 3.16788 6.08698 3.32152 5.87193C3.47517 5.65607 4.34109 5.97186 4.51143 5.7688C4.68177 5.56494 4.68177 5.28273 4.86715 5.09166C5.05252 4.90059 4.68511 4.19708 4.88468 4.0196C5.08425 3.84212 5.55855 3.96843 5.77148 3.80534C5.98441 3.64305 6.23909 3.56231 6.46454 3.41441C6.68916 3.26731 6.43615 2.36793 6.67246 2.23762C6.90794 2.10731 7.81978 3.20895 8.06528 3.09543C8.30994 2.98271 8.33165 2.47745 8.58549 2.38152C8.83851 2.28639 9.02305 2.05374 9.28441 1.9762C9.54326 1.89945 9.86475 2.1233 10.1311 2.06494C10.395 2.00738 10.496 1.11279 10.7674 1.07442C11.0354 1.03604 11.3302 0.895339 11.6041 0.875353C11.8738 0.856166 12.1869 1.31345 12.4617 1.31345C12.7364 1.31345 13.0604 0.714663 13.3301 0.73385C13.604 0.753037 13.8996 0.962493 14.1676 1.00007C14.439 1.03924 14.672 1.40379 14.9358 1.46055C15.203 1.51891 15.2748 2.22723 15.5337 2.30317C15.7951 2.37992 16.0464 2.38152 16.2986 2.47665C16.5533 2.57259 17.2355 1.74755 17.4801 1.86028C17.7265 1.9738 17.7023 2.62455 17.9377 2.75486C18.174 2.88597 18.4546 2.95792 18.6792 3.10502C18.9047 3.25212 19.4516 3.02668 19.6645 3.18897C19.8775 3.35205 19.1026 4.6 19.3021 4.77748C19.5017 4.95496 20.8661 4.014 21.0515 4.20507C21.2369 4.39614 21.2444 4.79586 21.4148 5.00052C21.5843 5.20438 21.0657 5.9047 21.2194 6.12056C21.373 6.33561 22.0393 6.24127 22.1755 6.46752C22.3116 6.69296 22.7174 6.81768 22.8368 7.05352C22.9545 7.28776 23.0439 7.58036 23.1432 7.82339C23.2426 8.06562 23.0731 8.42937 23.1533 8.6796C23.2334 8.92743 22.9787 9.2696 23.0397 9.52542C23.0998 9.77805 22.6673 10.0986 22.7082 10.3577C22.7483 10.6143 23.6159 10.7734 23.6359 11.0356C23.6551 11.297 23.1449 11.5776 23.1449 11.8406Z" fill="#711411"/>
<path d="M12.4584 20.6107C12.1845 20.6107 11.7962 20.785 11.529 20.7626C11.2568 20.7394 10.9111 20.4724 10.6464 20.426C10.3775 20.3788 9.92828 20.6011 9.66942 20.5315C9.40722 20.4612 9.40889 19.3779 9.15755 19.286C8.90287 19.1933 8.28329 19.7425 8.04113 19.6282C7.79731 19.513 7.43741 19.3875 7.20778 19.2516C6.97648 19.1149 7.03243 18.437 6.817 18.2819C6.59989 18.1252 6.47297 17.7982 6.27423 17.6239C6.07466 17.4481 5.97697 17.1363 5.7966 16.9436C5.6154 16.7501 6.24835 15.9611 6.08886 15.7524C5.92937 15.543 4.13659 16.3352 4.00048 16.1114C3.86353 15.8875 4.51986 15.1928 4.40797 14.9562C4.29691 14.7203 4.31361 14.4165 4.22844 14.1695C4.1441 13.9249 4.35453 13.6043 4.29691 13.3493C4.24013 13.0974 5.51437 12.7257 5.48598 12.4659C5.45759 12.2108 4.54073 12.1037 4.54073 11.8415C4.54073 11.5793 5.01252 11.4274 5.04091 11.1724C5.07014 10.9125 3.24562 10.3801 3.3024 10.1283C3.36002 9.87325 3.07194 9.41916 3.15627 9.17453C3.24145 8.9275 5.07348 9.30004 5.18537 9.06501C5.29726 8.82837 5.07598 8.47421 5.21209 8.25036C5.34903 8.02652 5.8275 8.06889 5.98699 7.85943C6.14648 7.64998 4.90397 6.32289 5.08433 6.12942C5.2647 5.93675 6.74852 6.93766 6.94809 6.76178C7.14683 6.5867 6.14147 4.97661 6.35857 4.81992C6.57401 4.66402 6.99485 4.59607 7.22616 4.45936C7.45579 4.32426 8.03195 4.62485 8.27577 4.50973C8.51709 4.39541 9.38384 5.69611 9.63852 5.60338C9.88986 5.51144 9.47987 3.47284 9.7429 3.40249C10.0018 3.33294 10.8092 5.5666 11.0773 5.52024C11.3411 5.47387 11.4564 5.08054 11.7286 5.05735C11.9958 5.03417 12.1845 2.84607 12.4575 2.84607C12.7314 2.84607 12.9068 5.16688 13.174 5.19006C13.4462 5.21325 13.8019 4.27709 14.0658 4.32266C14.3347 4.36982 14.394 5.11491 14.6528 5.18367C14.915 5.25402 15.0453 5.45948 15.2966 5.55141C15.5513 5.64415 15.8711 5.41791 16.1124 5.53223C16.3562 5.64735 16.8205 5.31638 17.0501 5.45148C17.2814 5.58819 17.5796 5.62816 17.795 5.78405C18.0121 5.94075 18.4296 5.89598 18.6283 6.07106C18.8279 6.24694 18.3995 7.00722 18.5791 7.19988C18.7603 7.39335 18.2442 8.01533 18.4037 8.22478C18.5632 8.43424 20.9505 7.25105 21.0866 7.4741C21.2236 7.69794 19.04 9.077 19.1519 9.31363C19.2629 9.54947 19.6796 9.55827 19.7648 9.8053C19.8491 10.0499 21.3196 9.92122 21.3772 10.1762C21.434 10.4281 20.5723 10.8374 20.6006 11.0972C20.629 11.3522 22.2498 11.5785 22.2498 11.8407C22.2498 12.1029 19.7214 12.2364 19.693 12.4915C19.6638 12.7513 21.3856 13.2437 21.3288 13.4956C21.2712 13.7506 19.789 13.6123 19.7038 13.8569C19.6187 14.104 20.7009 14.7555 20.5898 14.9913C20.4779 15.228 21.1526 15.9443 21.0165 16.1681C20.8795 16.392 18.716 15.3543 18.5565 15.5637C18.397 15.7732 18.7611 16.2889 18.5799 16.4823C18.3995 16.675 19.5886 18.2283 19.389 18.4042C19.1903 18.5793 18.2776 18.0788 18.0605 18.2355C17.8451 18.3914 16.8264 17.3865 16.5942 17.5232C16.3646 17.6583 16.8965 19.0861 16.6527 19.2013C16.4114 19.3156 16.251 19.7944 15.9964 19.8872C15.745 19.9791 15.3492 19.9184 15.0862 19.9887C14.8273 20.0583 14.1593 18.4018 13.8913 18.449C13.6274 18.4953 13.508 19.1453 13.2358 19.1685C12.9719 19.1917 12.7323 20.6107 12.4584 20.6107Z" fill="#A52422"/>
<path d="M19.3431 11.8406C19.3431 12.0597 18.5682 12.2619 18.5331 12.4746C18.4972 12.6896 18.8721 13.0142 18.8045 13.2221C18.7369 13.4283 18.2058 13.4803 18.1098 13.6778C18.0146 13.8736 17.0785 13.5626 16.9599 13.7489C16.8422 13.9336 18.4788 15.2663 18.3402 15.4398C18.2033 15.6116 17.5612 15.4653 17.4075 15.6252C17.2539 15.7851 15.9763 14.8282 15.8093 14.9753C15.6414 15.1232 15.9688 15.7324 15.7917 15.8659C15.6114 16.001 16.2752 17.2857 16.089 17.4048C15.897 17.5271 15.355 17.1985 15.1605 17.3025C14.9576 17.4104 14.4282 16.9004 14.2269 16.9867C14.0132 17.0786 14.1718 18.1395 13.9647 18.2059C13.7393 18.2778 13.1055 16.814 12.8942 16.8532C12.6571 16.8972 12.5886 17.081 12.3773 17.081C12.1661 17.081 12.1327 16.7253 11.8947 16.6813C11.6834 16.6421 11.0163 18.2714 10.7916 18.1995C10.5837 18.1331 10.6413 17.2905 10.4276 17.1985C10.2255 17.1122 10.3892 16.3903 10.1863 16.2824C9.9917 16.1784 9.06065 17.2329 8.86943 17.1106C8.68238 16.9915 9.41887 15.662 9.23851 15.5269C9.06065 15.3934 7.74716 16.543 7.57932 16.3959C7.41232 16.2488 7.95174 15.3862 7.7981 15.2263C7.64445 15.0664 6.41447 15.7108 6.27753 15.5381C6.13891 15.3646 6.19736 14.9377 6.07963 14.7538C5.96022 14.5676 5.82745 14.2774 5.73309 14.0815C5.63707 13.884 7.17183 13.083 7.1042 12.8759C7.03656 12.6689 5.41078 12.8176 5.37487 12.6025C5.3398 12.3898 6.02953 12.0597 6.02953 11.8398C6.02953 11.6216 6.59066 11.4833 6.62656 11.2714C6.66331 11.0572 5.15108 10.4408 5.22039 10.2345C5.2897 10.0291 6.28421 10.0858 6.3819 9.88916C6.47877 9.69489 5.99278 9.12648 6.11386 8.94181C6.23327 8.75953 7.73798 9.49583 7.87742 9.32395C8.01604 9.15366 8.18137 9.0969 8.33585 8.93861C8.49033 8.78032 7.17434 7.18062 7.34134 7.03432C7.50918 6.88802 8.27155 7.32212 8.44858 7.18941C8.62811 7.0543 9.4815 7.83377 9.66771 7.71465C9.85893 7.59233 9.7821 7.13345 9.97499 7.02872C10.1771 6.9192 10.1888 6.48429 10.3883 6.39635C10.6013 6.30202 10.6196 5.66885 10.8242 5.6001C11.0497 5.52495 11.7344 7.18142 11.9423 7.13984C12.182 7.09188 12.1703 6.66497 12.3765 6.66497C12.5828 6.66497 12.9535 5.33868 13.194 5.38665C13.4028 5.42822 13.6574 5.65366 13.8829 5.72881C14.0875 5.79756 14.1175 6.37397 14.3313 6.4683C14.5309 6.55624 14.3113 7.36849 14.5133 7.47801C14.7062 7.58274 15.9162 6.13254 16.1074 6.25565C16.2928 6.37477 15.1204 8.28386 15.3008 8.41817C15.4778 8.55088 16.7036 7.45403 16.8714 7.60033C17.0384 7.74583 17.6012 7.58674 17.7549 7.74503C17.9094 7.90412 16.4873 9.33834 16.6251 9.50862C16.7645 9.6805 18.2709 8.90743 18.3903 9.08971C18.5114 9.27438 17.4751 10.0578 17.572 10.2521C17.6697 10.4488 18.741 10.2513 18.8103 10.4568C18.8796 10.663 18.3862 11.0108 18.4229 11.225C18.4596 11.4385 19.3431 11.6224 19.3431 11.8406Z" fill="#EF4723"/>
<path d="M7.5401 11.8406C7.5401 11.5832 7.85407 11.3386 7.91753 11.0931C7.98099 10.8469 7.92338 10.5463 8.04028 10.3161C8.15551 10.089 8.4486 9.95153 8.60475 9.74367C8.75923 9.53821 9.1876 9.58937 9.37297 9.4063C9.55835 9.22323 9.22184 8.49333 9.42809 8.33503C9.63851 8.17355 10.0093 8.17834 10.2305 8.04643C10.4627 7.90813 10.9645 8.29746 11.1983 8.19513C11.453 8.08401 11.5708 7.77942 11.8121 7.71706C12.0918 7.64431 12.3123 7.08789 12.5519 7.08789C12.7974 7.08789 13.1172 7.34771 13.3969 7.43805C13.6374 7.5148 13.7844 7.85536 14.0341 7.98887C14.2612 8.11039 14.7205 7.93691 14.9434 8.0984C15.1547 8.25109 14.966 8.86187 15.1639 9.04495C15.3567 9.22323 15.5688 9.34714 15.7409 9.5486C15.912 9.74927 15.9371 10.0043 16.079 10.2241C16.2227 10.4456 16.9424 10.3736 17.0477 10.6095C17.1554 10.8501 16.9533 11.2115 17.0126 11.4617C17.0727 11.7159 16.8281 11.9701 16.8281 12.2284C16.8281 12.5066 17.309 12.8319 17.238 13.0862C17.1646 13.3484 16.5299 13.3828 16.3947 13.6186C16.2594 13.8544 16.6343 14.4269 16.4515 14.6331C16.2694 14.8386 15.7868 14.7866 15.5722 14.9601C15.3551 15.1352 15.4002 15.7028 15.1639 15.8427C14.9184 15.9882 14.5668 16.0441 14.3171 16.1497C14.0466 16.264 13.7243 16.3607 13.4671 16.4247C13.1665 16.499 12.8024 15.9314 12.5519 15.9314C12.3189 15.9314 11.9757 16.4543 11.6918 16.3759C11.4547 16.3104 11.276 15.9738 11.0213 15.8603C10.7908 15.7571 10.6622 15.4693 10.4309 15.3294C10.2113 15.1975 9.63434 15.5117 9.42474 15.3502C9.21933 15.1927 9.23436 14.7546 9.04898 14.5732C8.86277 14.3909 8.47115 14.3405 8.315 14.1375C8.15635 13.9312 8.54213 13.4044 8.42522 13.1789C8.30582 12.9503 8.26406 12.7608 8.19893 12.5162C8.13547 12.2723 7.5401 12.0973 7.5401 11.8406Z" fill="#F18721"/>
<path d="M12.4008 9.46702C12.4066 9.45103 12.4458 9.13444 12.6604 8.85544C12.7698 8.71313 12.9443 8.58122 13.0804 8.40614C13.2007 8.25105 13.3944 8.13513 13.5213 7.97124C13.6482 7.80735 13.7894 7.65386 13.9104 7.49876C14.0474 7.32368 14.2069 7.18138 14.3179 7.03988C14.5417 6.75287 14.6026 6.18846 14.7204 6.46587C14.8306 6.72489 14.6953 6.78485 14.6978 7.06466C14.7003 7.34447 14.6619 7.34447 14.6636 7.62428C14.6661 7.90409 14.6252 7.90409 14.6277 8.18389C14.6302 8.4637 14.5642 8.4637 14.5659 8.74351C14.5684 9.02332 14.5634 9.02332 14.5651 9.30313C14.5676 9.58294 14.7387 9.58214 14.7412 9.86195C14.7438 10.1418 14.9416 10.3904 14.6577 10.4559C14.3613 10.5239 14.4515 10.1993 14.2803 9.95788C14.1092 9.71644 14.1918 9.66288 14.0206 9.42145C13.8495 9.18001 13.9021 9.10247 13.6098 9.02092C13.2917 8.93218 13.2817 9.01213 12.9794 9.14244C12.6738 9.27355 12.7147 9.36549 12.4008 9.46702Z" fill="#F18721"/>
<path d="M13.7976 15.5156C13.806 15.5268 13.9087 15.7978 13.9488 16.108C13.973 16.2943 13.973 16.5029 13.9963 16.6892C14.0364 17.0074 14.3303 17.3775 14.0548 17.2552C13.8026 17.1433 13.8861 17.0522 13.7066 16.8499C13.5271 16.6476 13.5404 16.6365 13.3601 16.4342C13.1797 16.2311 13.1113 16.2871 12.9317 16.0848C12.7514 15.8818 12.338 15.5828 12.6136 15.6172C13.006 15.6667 12.8641 16.0145 13.2549 16.0744C13.6557 16.136 13.5087 15.7874 13.7976 15.5156Z" fill="#F18721"/>
<path d="M11.4446 16.2048C11.4279 16.2904 11.4154 16.3727 11.4054 16.4598C11.3912 16.5478 11.3703 16.6317 11.3444 16.7165C11.3177 16.8036 11.2835 16.8796 11.2618 16.9603C11.2376 17.0418 11.215 17.121 11.1991 17.2041C11.19 17.2465 11.1783 17.2905 11.1666 17.3336C11.1541 17.3752 11.1415 17.4176 11.1215 17.4648C11.1023 17.5103 11.0714 17.5559 11.0397 17.5927C11.0079 17.6286 10.9854 17.6542 10.9678 17.6854C10.9319 17.7462 10.9036 17.8285 10.8944 17.9013C10.8894 17.938 10.8894 17.9844 10.8818 18.0324C10.8743 18.0803 10.861 18.1251 10.8459 18.1683C10.8317 18.2074 10.8201 18.2458 10.8125 18.2842C10.8042 18.3226 10.8017 18.3625 10.795 18.4089C10.7816 18.5024 10.7474 18.5864 10.7182 18.6663C10.6873 18.7487 10.6539 18.827 10.6255 18.9078C10.5988 18.9869 10.562 19.0788 10.5061 19.15C10.4518 19.2172 10.4226 19.2883 10.3925 19.3722C10.3625 19.4554 10.3182 19.5329 10.2848 19.6097C10.2197 19.768 10.1671 19.9335 10.1069 20.095L10.0919 20.0902C10.142 19.9247 10.1838 19.7584 10.2397 19.5929C10.2698 19.509 10.3074 19.433 10.3316 19.3515C10.3541 19.2715 10.3867 19.1788 10.4393 19.1068C10.4886 19.0365 10.5128 18.9653 10.5378 18.8798C10.5637 18.7966 10.5938 18.7143 10.6196 18.6336C10.6455 18.5512 10.6731 18.4721 10.6806 18.3937C10.6848 18.3545 10.6856 18.309 10.6931 18.2626C10.6998 18.2162 10.7123 18.1715 10.7249 18.1291C10.7366 18.0899 10.7457 18.0516 10.7491 18.014C10.7533 17.9764 10.7507 17.9364 10.7541 17.8877C10.7566 17.8397 10.7666 17.7917 10.7783 17.7478C10.79 17.7038 10.8059 17.6574 10.8292 17.6119C10.8535 17.5663 10.8877 17.5255 10.9127 17.4943C10.9378 17.464 10.9537 17.436 10.9687 17.4016C10.9837 17.3696 10.9954 17.3288 11.0088 17.2881C11.0221 17.2481 11.0338 17.2097 11.0447 17.1682C11.0681 17.0842 11.0973 16.9979 11.1298 16.9163C11.1624 16.8332 11.2058 16.7524 11.2409 16.6789C11.2751 16.6021 11.3094 16.5222 11.3369 16.4431C11.3653 16.3631 11.392 16.2768 11.4321 16.1992L11.4446 16.2048Z" fill="#EF4723"/>
<path d="M10.8 15.2008C10.7967 15.2088 10.6221 15.4582 10.5487 15.7548C10.5119 15.9043 10.7073 16.1314 10.6614 16.316C10.6213 16.4791 10.5186 16.6374 10.476 16.8101C10.4334 16.982 10.284 17.1307 10.2439 17.2938C10.1979 17.4784 10.2506 17.6735 10.2138 17.823C10.1395 18.1252 9.78545 18.4442 10.0201 18.313C10.2364 18.1923 10.1295 18.0868 10.294 17.9069C10.4585 17.7271 10.4301 17.7031 10.5946 17.5232C10.7591 17.3433 10.8802 17.444 11.0447 17.2642C11.2092 17.0843 11.0948 16.9884 11.2601 16.8077C11.4254 16.6278 11.4547 16.6518 11.6192 16.4719C11.7845 16.2912 11.8246 16.3256 11.9899 16.145C12.1552 15.9643 12.3799 16.0282 12.2997 15.8012C12.212 15.5526 12.106 15.6085 11.8463 15.5214C11.5874 15.435 11.4931 15.6565 11.2442 15.5454C10.9921 15.4326 11.0605 15.2831 10.8 15.2008Z" fill="#F18721"/>
<path d="M11.0565 14.4292C11.0548 14.4332 11.0339 14.7778 10.993 15.084C10.9721 15.2406 11.003 15.4285 10.978 15.6164C10.9546 15.7899 10.7083 15.9426 10.6849 16.116C10.6599 16.3047 10.8185 16.5086 10.7976 16.6661C10.7559 16.9755 10.4753 17.392 10.7058 17.2465C10.9053 17.1202 10.7701 16.9755 10.9087 16.7892C11.0473 16.6021 11.0982 16.6365 11.2368 16.4494C11.3754 16.2623 11.3972 16.2767 11.5358 16.0897C11.6744 15.9026 11.7236 15.9354 11.8622 15.7491C12.0017 15.562 11.9641 15.5364 12.1027 15.3486C12.2422 15.1615 12.4793 15.1367 12.41 14.9169C12.344 14.7074 12.1403 14.789 11.9215 14.7242C11.7028 14.6594 11.6284 14.8385 11.4264 14.7338C11.2135 14.6235 11.2761 14.4916 11.0565 14.4292Z" fill="#F2CB15"/>
<path d="M16.3161 10.8485C16.3253 10.8413 16.433 10.8093 16.5808 10.5839C16.656 10.4696 16.752 10.3409 16.8439 10.1994C16.9257 10.0739 16.7938 9.81243 16.8798 9.67973C16.9658 9.54702 17.1378 9.46547 17.2188 9.33996C17.3106 9.19766 17.5161 9.1345 17.5904 9.01938C17.7407 8.78594 18.0046 8.5557 17.7649 8.5461C17.5002 8.53491 17.5119 8.66202 17.2572 8.73238C17.0034 8.80273 17.0234 8.86988 16.7687 8.94023C16.514 9.01058 16.4522 8.80353 16.1976 8.87388C15.9429 8.94423 15.9579 8.9938 15.7032 9.06415C15.4485 9.1345 15.4961 9.29359 15.2414 9.36394C14.9868 9.43429 14.834 9.19366 14.773 9.44069C14.7104 9.69571 14.8999 9.61257 15.0911 9.79964C15.2824 9.98671 15.208 10.0563 15.4001 10.2433C15.5913 10.4304 15.7241 10.2881 15.9379 10.452C16.1575 10.6167 16.1207 10.6654 16.3161 10.8485Z" fill="#F18721"/>
<path d="M9.87567 15.0499C9.67275 14.8908 9.6811 14.5078 9.5308 14.3072C9.38133 14.1065 9.10911 13.9554 9.00891 13.7252C8.90954 13.4981 8.99805 13.2031 8.94294 12.9593C8.88783 12.7179 9.21516 12.4557 9.19846 12.2086C9.18176 11.9592 8.396 11.7074 8.4152 11.4635C8.43524 11.2093 8.69327 10.9559 8.74671 10.7216C8.80516 10.4666 9.43978 10.4171 9.53247 10.2028C9.64102 9.95017 9.50658 9.67996 9.65271 9.50887C9.79884 9.33779 9.65522 8.77178 9.89237 8.61908C10.0944 8.48957 10.4669 8.52635 10.7165 8.42082C10.9453 8.32409 11.2835 8.47518 11.539 8.40643C11.7845 8.34007 11.9707 7.90917 12.2296 7.87559C12.486 7.84202 12.7816 8.40323 13.0396 8.40723C13.3001 8.41123 13.5164 8.36566 13.7686 8.41363C14.0241 8.46239 14.166 8.63747 14.4015 8.7382C14.6362 8.83893 15.199 8.41922 15.4019 8.57831C15.604 8.7366 15.5789 9.14672 15.7267 9.34818C15.8745 9.54885 15.7392 9.86463 15.8369 10.0957C15.933 10.3227 16.5066 10.4091 16.5601 10.6529C16.6127 10.8943 16.0766 11.2069 16.0924 11.4531C16.1083 11.7026 16.7563 11.9536 16.7379 12.1958C16.7187 12.4501 16.3079 12.6627 16.2569 12.8961C16.201 13.1528 16.6026 13.5613 16.515 13.7747C16.4081 14.0338 16.1258 14.3 15.9847 14.4655C15.8436 14.631 15.5614 14.8516 15.3167 15.0035C15.1155 15.1282 14.5835 14.7061 14.3314 14.81C14.1034 14.9044 14.0592 15.5255 13.8028 15.5943C13.5581 15.6599 13.2308 15.468 12.9728 15.5024C12.7173 15.5367 12.4576 15.3617 12.2004 15.3593C11.9407 15.3577 11.6042 15.9037 11.3528 15.8581C11.0973 15.8117 10.9002 15.408 10.6648 15.3097C10.4285 15.2098 10.0777 15.2082 9.87567 15.0499Z" fill="#F2CB15"/>
<path d="M15.1689 9.7092C15.3759 9.92106 15.6214 10.1129 15.7576 10.3576C15.8987 10.611 16.0298 10.8908 16.0957 11.1634C16.1625 11.4408 16.1642 11.747 16.155 12.0292C16.145 12.3114 16.0147 12.5864 15.9287 12.8582C15.8436 13.1261 15.7659 13.4083 15.6072 13.6513C15.4536 13.8863 15.2532 14.1062 15.0319 14.3045C14.8106 14.5027 14.5651 14.6754 14.3096 14.8057C14.0449 14.9408 13.756 15.0288 13.4704 15.0919C13.1807 15.1559 12.8801 15.2046 12.5853 15.195C12.2905 15.1855 12.0033 15.0855 11.7194 15.0032C11.4397 14.9216 11.1082 14.9064 10.8543 14.7545C10.6088 14.6074 10.4293 14.3476 10.2222 14.1358C10.0151 13.9239 9.93328 13.6449 9.79634 13.4003C9.65522 13.1468 9.51494 12.9134 9.44897 12.64C9.38217 12.3626 9.29866 12.09 9.30868 11.8078C9.3187 11.5256 9.38801 11.2489 9.47402 10.9771C9.55919 10.7093 9.68862 10.4583 9.84727 10.2153C10.0009 9.98022 10.1086 9.68842 10.3299 9.49015C10.5512 9.29189 10.891 9.25911 11.1466 9.1288C11.4113 8.99369 11.6559 8.85299 11.9415 8.78983C12.2313 8.72587 12.5185 8.6907 12.8133 8.70029C13.108 8.70989 13.3711 8.8306 13.6558 8.91295C13.9355 8.99449 14.3004 8.91694 14.5543 9.06884C14.8006 9.21594 14.9618 9.49735 15.1689 9.7092Z" fill="#FFFBCE"/>
<path d="M14.9266 9.63254C15.1336 9.8444 15.3791 10.0363 15.5152 10.2809C15.6564 10.5343 15.7875 10.8141 15.8534 11.0867C15.9202 11.3642 15.9219 11.6703 15.9127 11.9526C15.9027 12.2348 15.7724 12.5098 15.6864 12.7816C15.6012 13.0494 15.5236 13.3316 15.3649 13.5746C15.2113 13.8097 15.0109 14.0295 14.7896 14.2278C14.5683 14.4261 14.3228 14.5987 14.0673 14.7291C13.8026 14.8642 13.5137 14.9521 13.2281 15.0153C12.9384 15.0792 12.6378 15.128 12.343 15.1184C12.0482 15.1088 11.761 15.0089 11.4771 14.9265C11.1973 14.845 10.8658 14.8298 10.612 14.6779C10.3665 14.5308 10.187 14.271 9.97989 14.0591C9.7728 13.8473 9.69097 13.5682 9.55403 13.3236C9.41291 13.0702 9.27262 12.8367 9.20666 12.5633C9.13986 12.2859 9.05635 12.0133 9.06637 11.7311C9.0764 11.4489 9.1457 11.1723 9.23171 10.9005C9.31688 10.6327 9.44631 10.3816 9.60496 10.1386C9.75861 9.90356 9.86632 9.61176 10.0876 9.41349C10.3089 9.21523 10.6487 9.18245 10.9043 9.05214C11.169 8.91703 11.4136 8.77633 11.6992 8.71317C11.9889 8.64922 12.2762 8.61404 12.571 8.62363C12.8657 8.63323 13.1288 8.75394 13.4135 8.83629C13.6932 8.91783 14.0581 8.84028 14.312 8.99218C14.5583 9.13928 14.7195 9.41989 14.9266 9.63254Z" fill="#080D10"/>
<path d="M15.2875 9.44402C15.28 9.44642 15.1121 9.42244 14.8266 9.56714C14.6721 9.64548 14.4909 9.72543 14.3147 9.81417C14.1385 9.9029 14.0792 10.2043 13.9247 10.2826C13.6341 10.4297 13.1507 10.2131 13.3786 10.3786C13.5815 10.5257 13.5815 10.5481 13.8304 10.596C14.0792 10.644 14.0901 10.5944 14.3389 10.6424C14.5877 10.6904 14.5978 10.6464 14.8466 10.6944C15.0963 10.7423 15.1105 10.6752 15.3593 10.7231C15.609 10.7711 15.5656 10.9782 15.8152 11.0261C16.0649 11.0741 16.247 11.234 16.4081 11.0445C16.5601 10.8654 16.1484 10.8335 16.0282 10.6328C15.9079 10.4329 15.9238 10.4241 15.8035 10.2235C15.6825 10.0228 15.7668 9.97406 15.6182 9.79178C15.467 9.60551 15.4119 9.64228 15.2875 9.44402Z" fill="#F2CB15"/>
<path d="M14.8783 8.9491C14.8733 8.95389 14.7313 8.99466 14.5418 9.12977C14.4282 9.21052 14.2996 9.29526 14.1861 9.376C13.9924 9.51351 13.6701 9.54948 13.883 9.59585C14.1377 9.65101 14.1251 9.62703 14.3856 9.61024C14.6462 9.59345 14.6512 9.6622 14.9117 9.64541C15.1722 9.62863 15.2941 9.78132 15.4461 9.57746C15.5688 9.41198 15.3125 9.39679 15.1722 9.24489C15.0303 9.0914 15.0077 9.10979 14.8783 8.9491Z" fill="#F2CB15"/>
<path d="M15.9671 10.3295C15.9755 10.3239 16.1174 10.2 16.2945 9.96574C16.3997 9.82584 16.5216 9.67474 16.626 9.53483C16.8055 9.29579 17.1646 9.19106 16.889 9.14709C16.5968 9.09992 16.621 9.15509 16.332 9.21824C16.0431 9.2814 16.0256 9.20705 15.7366 9.27021C15.4477 9.33337 15.2431 9.16948 15.1504 9.4389C15.0544 9.71551 15.3483 9.68353 15.5496 9.90258C15.7525 10.1216 15.7767 10.1017 15.9671 10.3295Z" fill="#F2CB15"/>
<path d="M8.85521 14.0615C8.84686 14.0663 8.69404 14.1806 8.4978 14.4053C8.38089 14.5388 8.24728 14.6835 8.13037 14.817C7.93162 15.0456 7.59509 15.084 7.85229 15.1951C8.05688 15.2831 8.03433 15.2119 8.25563 15.1791C8.47776 15.1464 8.48945 15.2239 8.71158 15.1911C8.93371 15.1584 8.9287 15.1288 9.15082 15.0952C9.37295 15.0616 9.54748 15.2199 9.5859 15.0073C9.63851 14.7171 9.39717 14.781 9.21011 14.5468C9.02222 14.311 9.03057 14.3046 8.85521 14.0615Z" fill="#F18721"/>
<path d="M16.7938 18.2139C16.7972 18.2195 16.8923 18.3849 17.0794 18.6008C17.1804 18.7175 17.3173 18.8326 17.4326 18.9645C17.5478 19.0973 17.7323 19.174 17.8342 19.2907C18.0246 19.509 18.1423 19.9487 18.098 19.704C18.0371 19.3731 18.0179 19.3803 17.9035 19.0621C17.7891 18.7439 17.9411 18.6512 17.7165 18.3929C17.5712 18.2259 17.4451 18.4129 17.2247 18.3626C17.0034 18.3122 17.0117 18.2746 16.7938 18.2139Z" fill="#A52422"/>
<path d="M11.0781 3.39933C11.0096 3.23464 10.9403 3.13231 10.8192 3.03238C10.6063 2.8549 10.3465 2.51194 10.354 2.75977C10.3641 3.08194 10.4994 3.06516 10.6205 3.36575C10.7416 3.66634 10.6363 3.73749 10.881 3.95894C11.1065 4.1636 10.9996 3.69032 11.0781 3.39933Z" fill="#EF4723"/>
<path d="M15.1922 3.65447C15.3375 3.49618 15.6681 2.94936 15.335 3.02451C14.9383 3.11484 14.9709 3.27793 14.7905 3.62809C14.7054 3.79438 15.0035 3.69765 15.1922 3.65447Z" fill="#A52422"/>
<path d="M12.2321 6.31877C12.2321 6.30998 12.3632 5.76075 12.056 5.79113C11.7303 5.82311 11.8389 6.06295 11.8305 6.37633C11.8255 6.56101 12.0401 6.33716 12.2321 6.31877Z" fill="#F18721"/>
<path d="M17.5202 11.2083C17.5294 11.2051 18.1474 11.1243 18.0146 10.8565C17.8743 10.5735 17.6455 10.7606 17.3349 10.8581C17.1511 10.9164 17.4376 11.0412 17.5202 11.2083Z" fill="#F2CB15"/>
<path d="M12.9953 11.6113C13.0045 11.6081 13.7885 11.4754 13.6491 11.114C13.5138 10.7631 13.2241 11.0317 12.8608 11.1708C12.6362 11.2563 12.9118 11.3954 12.9953 11.6113Z" fill="#F2CB15"/>
<path d="M15.2131 10.2299C15.2206 10.2243 15.6765 10.0924 15.8486 9.72782C15.9446 9.52396 15.5889 9.74701 15.3634 9.80696C15.138 9.86692 15.1288 9.84374 14.9492 9.98764C14.8449 10.0716 15.0795 9.9061 15.1997 9.96766C15.3166 10.026 15.2156 10.1044 15.2131 10.2299Z" fill="#FFFBCE"/>
<path d="M8.34333 18.0802C8.34083 18.089 8.05943 18.6246 8.36337 18.6782C8.68485 18.7358 8.65395 18.448 8.76 18.1514C8.80425 18.0274 8.6431 18.2905 8.50783 18.3064C8.37757 18.3216 8.41765 18.1825 8.34333 18.0802Z" fill="#EF4723"/>
<path d="M11.1991 7.37585C11.1949 7.36705 11.1055 6.73069 10.81 6.8626C10.4986 7.0017 10.6814 7.24714 10.8208 7.54773C10.8843 7.68444 10.8651 7.35586 10.9836 7.25833C11.0671 7.19037 11.1081 7.32149 11.1991 7.37585Z" fill="#F2CB15"/>
<path d="M21.7405 9.94516C21.7463 9.94436 21.8799 9.87721 22.057 9.81245C22.2357 9.7477 22.5906 9.77808 22.4328 9.67415C22.2658 9.56463 22.2223 9.64537 22.0244 9.6062C21.8257 9.56783 21.8148 9.4687 21.6261 9.54065C21.4215 9.61979 21.6987 9.73971 21.7405 9.94516Z" fill="#EF4723"/>
<path d="M8.95638 14.498C8.94887 14.5028 8.42783 14.7283 8.61153 14.9433C8.80525 15.1712 8.96139 14.9689 9.22024 14.8098C9.39225 14.7035 9.08581 14.6507 8.95638 14.498Z" fill="#F2CB15"/>
<path d="M3.9479 12.2925C3.93955 12.2941 3.38251 12.3205 3.47271 12.5843C3.56791 12.8641 3.77837 12.7306 4.07986 12.6722C4.28029 12.6331 4.01138 12.4796 3.9479 12.2925Z" fill="#EF4723"/>
<path d="M17.9562 17.6566C17.9637 17.6614 18.3745 18.0411 18.5164 17.7989C18.6659 17.5423 18.4121 17.4791 18.1616 17.308C17.9937 17.1929 18.0555 17.4847 17.9562 17.6566Z" fill="#EF4723"/>
<path d="M19.409 16.4246C19.3088 16.5901 19.4667 16.6972 19.6687 16.766C19.8992 16.8443 20.2475 17.105 20.1932 16.8595C20.1347 16.5957 20.0178 16.6405 19.8065 16.4614C19.652 16.3295 19.6086 16.3743 19.409 16.4246Z" fill="#F18721"/>
<path d="M17.6263 12.7297C17.5261 12.8952 17.6839 13.0023 17.886 13.0711C18.1165 13.1494 18.4647 13.41 18.4105 13.1646C18.352 12.9008 18.2351 12.9455 18.0238 12.7665C17.8693 12.6346 17.8259 12.6793 17.6263 12.7297Z" fill="#F18721"/>
<path d="M13.8036 5.74986C13.8044 5.74186 13.7952 5.50523 13.771 5.2558C13.7468 5.00237 13.8436 4.53069 13.6959 4.74175C13.5397 4.9648 13.6491 5.01356 13.5706 5.27099C13.4913 5.52921 13.3736 5.51242 13.3986 5.78024C13.417 5.9785 13.5965 5.76265 13.8036 5.74986Z" fill="#EF4723"/>
<path d="M16.5249 5.03973C16.5324 5.03253 17.1111 4.6432 16.8322 4.44733C16.5366 4.24028 16.4405 4.54647 16.1884 4.79989C16.0464 4.94219 16.3587 4.92381 16.5249 5.03973Z" fill="#EF4723"/>
<path d="M8.16227 4.54089C8.15809 4.53449 8.00695 4.36901 7.80905 4.19952C7.60781 4.02764 7.37817 3.61991 7.34561 3.87654C7.31137 4.14756 7.51345 4.12917 7.59194 4.39139C7.67043 4.65361 7.49424 4.73836 7.70801 4.91823C7.94098 5.1133 7.92011 4.72397 8.16227 4.54089Z" fill="#A52422"/>
<path d="M13.7784 20.1757C13.7809 20.1821 13.7784 20.414 13.9045 20.5011C14.1977 20.7034 14.3305 21.3254 14.3764 20.9976C14.4131 20.7322 14.2394 20.7369 14.1943 20.4723C14.1492 20.2085 14.2962 20.1685 14.1426 19.9447C14.0173 19.7632 13.9747 20.0686 13.7784 20.1757Z" fill="#EF4723"/>
<path d="M15.8711 14.9177C15.8786 14.9248 16.0932 15.1087 16.3621 15.2878C16.6351 15.4693 17.0526 15.9202 16.9708 15.6116C16.884 15.2854 16.6936 15.3669 16.5049 15.0831C16.317 14.7993 16.4556 14.6914 16.1667 14.5003C15.9421 14.3509 16.0364 14.7106 15.8711 14.9177Z" fill="#F18721"/>
<path d="M6.55812 16.0106C6.55311 16.0154 6.4337 16.1585 6.3193 16.3344C6.20324 16.5135 5.90513 16.7901 6.11556 16.7285C6.33767 16.663 6.27588 16.5471 6.46543 16.4183C6.65498 16.2896 6.73347 16.3736 6.85622 16.1849C6.95141 16.0378 6.70675 16.1082 6.55812 16.0106Z" fill="#080D10"/>
<path d="M4.26602 10.0133C4.25433 10.0117 3.4819 10.0789 3.58712 9.74311C3.69902 9.38816 3.94786 9.63758 4.33032 9.69274C4.5132 9.71912 4.31863 9.84544 4.26602 10.0133Z" fill="#080D10"/>
<path d="M19.4584 6.29422C19.6137 6.07837 19.7273 6.21028 19.9836 6.11594C20.2391 6.02241 20.4696 5.94006 20.4696 5.94006C20.4696 5.94006 20.2926 6.14073 20.1147 6.37257C19.9368 6.60441 20.0846 6.81387 19.7949 6.89061C19.6162 6.93778 19.8149 6.64758 19.6897 6.51647C19.5628 6.38296 19.3699 6.41734 19.4584 6.29422Z" fill="#F18721"/>
<path d="M21.1609 13.9921C21.1751 14.0049 21.186 14.0152 21.191 14.024C21.1968 14.0328 21.1968 14.0416 21.2311 14.048C21.2653 14.0544 21.3346 14.0608 21.3939 14.0776C21.4532 14.0936 21.5049 14.1144 21.5484 14.1368C21.5868 14.1576 21.621 14.1775 21.6586 14.2007C21.6953 14.2231 21.7346 14.2495 21.763 14.2727L21.8348 14.331C21.8582 14.3486 21.8849 14.367 21.9133 14.3838C21.9792 14.4214 22.0561 14.4685 22.1145 14.5157C22.1671 14.5597 22.2147 14.5956 22.2757 14.6316C22.3324 14.6668 22.3859 14.694 22.456 14.7116C22.5295 14.7292 22.6022 14.7595 22.6631 14.7963C22.5888 14.7891 22.5203 14.7931 22.4519 14.8083C22.3792 14.8235 22.2907 14.8243 22.213 14.8155C22.1387 14.8091 22.0535 14.7939 21.9801 14.7747C21.9116 14.7587 21.8556 14.7555 21.7872 14.7499C21.7479 14.7459 21.707 14.7403 21.6644 14.7324C21.6227 14.7252 21.5776 14.7132 21.5425 14.7052C21.5074 14.698 21.4816 14.6948 21.4523 14.6924C21.4239 14.69 21.3914 14.6876 21.3621 14.6868C21.3379 14.6876 21.3204 14.6924 21.3095 14.6988C21.2979 14.706 21.2962 14.7132 21.2586 14.7228C21.2219 14.7324 21.1501 14.7411 21.0858 14.7395C21.0198 14.7388 20.9622 14.7316 20.9079 14.7236L21.2185 14.4709L21.1609 13.9921Z" fill="#A52422"/>
<path d="M7.3847 10.5561C7.3847 10.5561 6.42025 10.2291 6.4453 10.1404C6.47035 10.0516 7.2369 10.0844 7.2369 10.0844C7.12585 10.2779 7.53584 10.3714 7.3847 10.5561Z" fill="#F18721"/>
<path d="M5.26051 17.416C5.26051 17.416 4.40795 17.958 4.35784 17.8997C4.30774 17.8421 4.81628 17.3081 4.81628 17.3081C4.89059 17.4752 5.21876 17.2242 5.26051 17.416Z" fill="#A52422"/>
<path d="M7.45667 5.90638C7.45667 5.90638 7.15106 5.42511 7.21786 5.35876C7.28466 5.2924 7.93847 5.67773 7.93847 5.67773C7.74308 5.79525 7.44498 5.41712 7.45667 5.90638Z" fill="#EF4723"/>
<path d="M19.5985 13.0863C19.5985 13.0863 20.1572 13.2542 20.1538 13.3165C20.1505 13.3789 19.4048 13.3949 19.4048 13.3949C19.4657 13.255 19.9467 13.3653 19.5985 13.0863Z" fill="#080D10"/>
<path d="M7.51422 13.7546C7.51422 13.7546 6.53052 14.0192 6.48041 13.9392C6.43031 13.8601 7.53509 13.2125 7.53509 13.2125C7.56599 13.4348 6.74763 13.7042 7.51422 13.7546Z" fill="#F18721"/>
<path d="M12.0994 19.1467C12.0994 19.1467 12.0083 20.1213 11.9131 20.138C11.818 20.1548 11.5775 18.9357 11.5775 18.9357C11.8054 18.9876 11.7787 19.8151 12.0994 19.1467Z" fill="#EF4723"/>
<path d="M2.71533 13.7065C2.77211 13.6937 2.82973 13.6825 2.88902 13.6777C2.9483 13.6729 3.00508 13.6721 3.06187 13.6625C3.11865 13.6545 3.17292 13.6385 3.23305 13.6297C3.29233 13.6201 3.35579 13.6241 3.41341 13.6329C3.47019 13.6417 3.52447 13.6433 3.57958 13.6345C3.63302 13.6257 3.69147 13.609 3.75159 13.6018C3.81172 13.593 3.87267 13.593 3.92778 13.5882C3.98373 13.5834 4.03801 13.573 4.09395 13.5602C4.1499 13.5474 4.20501 13.533 4.25845 13.5162C4.31189 13.4994 4.36868 13.4794 4.42629 13.4643C4.48391 13.4483 4.54236 13.4371 4.5933 13.4219C4.6459 13.4059 4.68932 13.3835 4.74026 13.3539C4.7912 13.3236 4.85299 13.298 4.91228 13.2828C4.97407 13.2668 5.02584 13.2564 5.08179 13.2412C5.18783 13.2108 5.30808 13.1733 5.41913 13.1493C5.47258 13.1357 5.52017 13.1189 5.56693 13.0949C5.61286 13.0701 5.67215 13.0365 5.7331 13.0174C5.79406 12.9966 5.85335 12.9846 5.90929 12.9718L6.08047 12.935L6.24915 12.899C6.30426 12.8863 6.38525 12.8719 6.45707 12.8895C6.53055 12.9054 6.58566 12.9382 6.62741 12.9502C6.67 12.9638 6.71008 12.9638 6.75851 12.955C6.81028 12.9454 6.85537 12.9318 6.89712 12.9086C6.93804 12.8871 6.98898 12.8439 7.05244 12.8183C7.11339 12.7911 7.18354 12.7807 7.23364 12.7711C7.28791 12.7599 7.33718 12.7456 7.38979 12.7248C7.44323 12.7032 7.50502 12.6816 7.56431 12.6704C7.62443 12.6584 7.68204 12.6496 7.74133 12.644C7.80062 12.6384 7.86074 12.6384 7.91752 12.6368C7.97514 12.6344 8.03275 12.6288 8.09037 12.6224L8.09371 12.6376C7.98349 12.676 7.86157 12.6888 7.75302 12.7136C7.69791 12.7264 7.64113 12.74 7.58852 12.7567C7.53508 12.7735 7.48832 12.7951 7.43738 12.8223C7.38561 12.8503 7.32465 12.8751 7.2662 12.8911C7.20358 12.9078 7.15849 12.9182 7.11423 12.9414C7.07164 12.9614 7.0349 12.9958 6.97729 13.0326C6.9205 13.0685 6.85454 13.0925 6.79191 13.1061C6.72678 13.1205 6.64662 13.1221 6.57814 13.1005C6.50884 13.0797 6.46208 13.0533 6.42116 13.0469C6.37857 13.0389 6.341 13.0413 6.28338 13.0533L6.11053 13.0853L5.94019 13.1149C5.88257 13.1253 5.82662 13.1349 5.77819 13.1493C5.72726 13.1629 5.68467 13.1852 5.62789 13.2124C5.57111 13.2396 5.50765 13.2588 5.44836 13.27C5.33146 13.2908 5.22875 13.3196 5.11101 13.3499C5.05423 13.3635 4.99244 13.3747 4.94067 13.3859C4.88722 13.3987 4.84046 13.4163 4.7912 13.4419C4.74193 13.4691 4.68097 13.497 4.62169 13.5122C4.56073 13.5282 4.50478 13.537 4.44967 13.5498C4.39456 13.5626 4.34112 13.5786 4.2835 13.5954C4.22589 13.6114 4.16827 13.6241 4.11065 13.6353C4.0522 13.6465 3.99208 13.6553 3.93196 13.6577C3.871 13.6601 3.81506 13.6569 3.75911 13.6633C3.70233 13.6681 3.64889 13.6809 3.5871 13.6881C3.52697 13.6953 3.46268 13.6905 3.4059 13.6785C3.34911 13.6673 3.29484 13.6609 3.23889 13.6673C3.18378 13.6729 3.12533 13.6873 3.06688 13.6929C3.00759 13.7001 2.9483 13.6985 2.89152 13.7001C2.83391 13.7025 2.77712 13.7105 2.72034 13.7209L2.71533 13.7065Z" fill="#EF4723"/>
<path d="M2.96843 7.74036C3.02187 7.76434 3.07364 7.79312 3.11873 7.83069C3.16382 7.86827 3.2014 7.90984 3.24899 7.94022C3.29575 7.9714 3.34836 7.99218 3.4018 8.01777C3.45441 8.04255 3.50701 8.07133 3.55628 8.10171C3.65314 8.16247 3.75835 8.20564 3.86523 8.25281L4.18504 8.39191C4.29276 8.43908 4.39463 8.49984 4.4965 8.54781C4.59837 8.59497 4.7111 8.64534 4.81046 8.7021C4.86057 8.72848 4.9115 8.75327 4.96327 8.77725C5.01337 8.80043 5.05679 8.81322 5.10439 8.81003C5.15115 8.80843 5.20626 8.78924 5.27557 8.78285C5.34487 8.77645 5.42002 8.79324 5.47764 8.82202C5.53358 8.8476 5.59287 8.88278 5.63963 8.92755C5.68723 8.97312 5.71729 9.01069 5.7582 9.03707C5.79828 9.06585 5.84421 9.08264 5.90349 9.11222C5.9586 9.1394 6.01539 9.17778 6.06048 9.21295C6.10473 9.24733 6.14481 9.27291 6.19324 9.2977C6.24084 9.32168 6.29428 9.34406 6.34438 9.36485C6.39448 9.38563 6.44792 9.40242 6.50637 9.42481C6.56315 9.44639 6.6191 9.47278 6.6717 9.49756C6.72264 9.52314 6.77357 9.54713 6.82535 9.56871C6.87712 9.5911 6.9339 9.61348 6.98734 9.63986L7.06666 9.67983C7.09004 9.69183 7.11342 9.70302 7.1368 9.71101C7.1844 9.7278 7.23033 9.7326 7.29212 9.7358C7.35474 9.73899 7.42321 9.75658 7.47916 9.78296C7.5351 9.80855 7.59105 9.84292 7.63364 9.89009C7.67622 9.93886 7.6971 9.99402 7.72716 10.0372C7.75638 10.0812 7.79897 10.1179 7.84823 10.1475L7.84072 10.1611C7.78561 10.1411 7.7305 10.1099 7.68958 10.0644C7.64783 10.0188 7.61944 9.97084 7.5802 9.93886C7.54178 9.90608 7.49419 9.8829 7.44242 9.86531C7.39065 9.84772 7.34305 9.84132 7.28878 9.84372C7.2345 9.84692 7.16186 9.84772 7.09756 9.82933C7.06499 9.82134 7.03493 9.80935 7.00571 9.79735L6.92638 9.76458C6.87378 9.74299 6.82201 9.7246 6.76606 9.70382C6.71011 9.68303 6.65417 9.66065 6.59989 9.63666C6.54729 9.61268 6.49719 9.5903 6.44542 9.57111C6.39531 9.55272 6.33686 9.53513 6.27925 9.51275C6.22163 9.48956 6.16986 9.46478 6.11392 9.436C6.05964 9.40722 6.00286 9.36965 5.95777 9.33127C5.91351 9.2945 5.87594 9.26572 5.82834 9.23933C5.78492 9.21455 5.72313 9.18737 5.67053 9.1474C5.61625 9.10742 5.57533 9.05386 5.54193 9.01948C5.5077 8.98351 5.46678 8.95713 5.41919 8.93234C5.3741 8.90836 5.33068 8.89797 5.28392 8.90037C5.23632 8.90196 5.1787 8.92035 5.10856 8.92195C5.03842 8.92515 4.96745 8.90037 4.91401 8.87238C4.8614 8.846 4.80879 8.81882 4.75786 8.78924C4.65766 8.72848 4.5608 8.68052 4.45391 8.62695C4.34787 8.57179 4.25268 8.51103 4.14914 8.46146L3.83768 8.30877C3.73414 8.2576 3.62642 8.20724 3.53039 8.14088C3.4828 8.10891 3.4352 8.07933 3.38427 8.05214C3.33417 8.02576 3.27905 8.00098 3.23146 7.965C3.18219 7.93063 3.14462 7.88586 3.1037 7.84828C3.06279 7.81071 3.01352 7.78033 2.96259 7.75475L2.96843 7.74036Z" fill="#EF4723"/>
<path d="M5.30142 5.69299C5.33816 5.71858 5.37407 5.74656 5.40496 5.77853C5.4367 5.81051 5.46258 5.84729 5.49097 5.87847C5.54692 5.94322 5.62374 5.98639 5.69555 6.04235C5.76736 6.09832 5.82999 6.15827 5.9018 6.20784C5.97362 6.2606 6.04376 6.30377 6.12642 6.33575C6.21243 6.37173 6.29176 6.42129 6.36441 6.48045C6.40115 6.51003 6.43538 6.54681 6.46294 6.58278C6.49049 6.61956 6.51387 6.64994 6.5431 6.67712C6.60239 6.73068 6.67503 6.78025 6.74852 6.80903C6.78609 6.82342 6.83202 6.83701 6.87794 6.85859C6.92304 6.88018 6.96395 6.90576 7.00236 6.93294C7.04077 6.96012 7.07835 6.9897 7.11259 7.02408C7.14766 7.05926 7.17521 7.09523 7.20277 7.12241C7.25621 7.17757 7.32886 7.22474 7.40067 7.26951C7.46831 7.31188 7.55682 7.35585 7.63113 7.41021C7.70462 7.46218 7.77977 7.52454 7.8424 7.58769C7.87246 7.61807 7.90168 7.64605 7.93425 7.67323C7.96765 7.70121 8.00021 7.7276 8.03111 7.74758C8.06368 7.76837 8.09457 7.78196 8.13549 7.79395C8.1764 7.80514 8.22901 7.82113 8.27243 7.84592C8.31669 7.8715 8.3551 7.90028 8.38934 7.93226C8.42357 7.96503 8.45614 8.00341 8.47868 8.04418C8.50123 8.08575 8.51542 8.12492 8.53797 8.1593C8.55968 8.19448 8.58891 8.22645 8.62064 8.25683L8.61062 8.26882C8.57137 8.24644 8.53296 8.22006 8.50039 8.18568C8.46783 8.1521 8.44278 8.11213 8.41689 8.08175C8.36762 8.0202 8.29247 7.97303 8.2215 7.94185C8.18475 7.92746 8.14968 7.92106 8.10292 7.91227C8.05616 7.90348 8.00272 7.88669 7.95763 7.8635C7.91087 7.83952 7.87413 7.81074 7.83739 7.78436C7.79981 7.75718 7.76307 7.7268 7.72883 7.69642C7.66454 7.63646 7.60191 7.58849 7.5301 7.53733C7.49503 7.51254 7.46163 7.48856 7.42572 7.46618C7.38981 7.44379 7.3489 7.41981 7.30965 7.39343C7.2345 7.33986 7.16018 7.2855 7.09422 7.21035C7.06165 7.17278 7.03827 7.1376 7.01155 7.10962C6.98566 7.08084 6.95477 7.05366 6.9222 7.02728C6.88963 7.00169 6.8554 6.97851 6.82116 6.96012C6.78693 6.94174 6.74685 6.92814 6.70175 6.90816C6.6099 6.86659 6.53642 6.81063 6.46795 6.74347C6.43371 6.7091 6.40532 6.66832 6.38194 6.63395C6.35856 6.59957 6.33351 6.57079 6.30261 6.54281C6.23999 6.48765 6.16985 6.43808 6.09135 6.40211C5.92101 6.32376 5.79074 6.19025 5.66466 6.07353C5.60036 6.01677 5.52187 5.96641 5.46676 5.89366C5.43837 5.85848 5.41582 5.8217 5.38743 5.78893C5.35904 5.75615 5.32647 5.72737 5.29224 5.70019L5.30142 5.69299Z" fill="#080D10"/>
<path d="M7.43324 3.86438C7.50839 3.99629 7.5994 4.11941 7.67538 4.25291C7.75053 4.38403 7.83904 4.50954 7.91502 4.64305C7.95259 4.7078 7.99351 4.76457 8.04694 4.81893C8.10205 4.87489 8.15132 4.94364 8.18889 5.0116C8.22813 5.07875 8.26153 5.1603 8.27656 5.23624C8.29159 5.30899 8.31664 5.36815 8.35338 5.43211C8.39095 5.49687 8.42936 5.55762 8.47445 5.61758C8.52121 5.67914 8.5663 5.74789 8.60471 5.81505C8.64144 5.8798 8.67902 5.93577 8.72578 5.99333C8.77504 6.05409 8.82096 6.12764 8.85603 6.19719C8.89026 6.26594 8.92366 6.33949 8.95038 6.41144C8.97543 6.48259 9.00466 6.54815 9.03471 6.6177C9.09901 6.75681 9.14911 6.90071 9.20338 7.04301L9.18918 7.05021C9.0965 6.92629 9.01634 6.79518 8.93452 6.66727C8.89193 6.60251 8.85436 6.53216 8.81929 6.46341C8.78673 6.39625 8.75249 6.3323 8.71325 6.26834C8.67651 6.20358 8.63894 6.14842 8.59218 6.09006C8.54292 6.0285 8.49866 5.95495 8.4636 5.8862C8.4302 5.81905 8.3968 5.75749 8.35505 5.69433C8.31247 5.62958 8.27239 5.55922 8.23815 5.48967C8.20141 5.42012 8.17303 5.33618 8.16217 5.25943C8.15132 5.18668 8.12961 5.12512 8.09621 5.05876C8.06281 4.99241 8.02607 4.93405 7.97597 4.87729C7.9242 4.81893 7.87745 4.74858 7.84321 4.67982C7.77809 4.54392 7.69876 4.4136 7.63197 4.2753C7.56684 4.13939 7.48418 4.00988 7.41821 3.87237L7.43324 3.86438Z" fill="#080D10"/>
<path d="M12.3731 1.48477L12.3999 2.00521L12.4132 2.26583C12.4157 2.35377 12.4232 2.43531 12.4383 2.52165C12.4516 2.60959 12.4525 2.70073 12.4575 2.78387C12.4625 2.86702 12.4783 2.95416 12.4825 3.0437L12.4858 3.11005C12.4858 3.13403 12.4858 3.15882 12.4817 3.1844C12.475 3.23476 12.4525 3.28593 12.4274 3.3259C12.4024 3.36587 12.3823 3.39705 12.374 3.42983C12.364 3.46261 12.3623 3.49938 12.3656 3.53696C12.369 3.57453 12.3781 3.60731 12.3948 3.63769C12.4115 3.66807 12.4399 3.70244 12.4658 3.74961C12.4909 3.79678 12.505 3.85114 12.5084 3.90071C12.5126 3.95027 12.5126 3.98945 12.5151 4.03422L12.5209 4.29484C12.5217 4.33481 12.5226 4.39077 12.5101 4.44193C12.4984 4.4947 12.4708 4.54506 12.4499 4.58024C12.4282 4.61622 12.4166 4.6434 12.4099 4.67857C12.4032 4.71215 12.4024 4.75292 12.4049 4.7889C12.4074 4.82567 12.4157 4.85765 12.4324 4.89442C12.4491 4.9312 12.4725 4.97837 12.4817 5.02793C12.4917 5.0775 12.4917 5.12547 12.4867 5.17183C12.4817 5.2174 12.4725 5.26537 12.455 5.30934C12.4366 5.35331 12.4149 5.38928 12.4015 5.42846C12.3873 5.46763 12.3798 5.51 12.374 5.55237H12.3581C12.3514 5.5084 12.3489 5.46363 12.3564 5.41806C12.3623 5.3725 12.3781 5.32853 12.3848 5.28935C12.3932 5.25018 12.3948 5.21021 12.3915 5.16944C12.389 5.12866 12.384 5.08949 12.3715 5.05431C12.3598 5.01914 12.3397 4.98876 12.3164 4.94799C12.2922 4.90722 12.2721 4.85525 12.2638 4.80569C12.2554 4.75612 12.2538 4.70895 12.2596 4.65619C12.2654 4.60502 12.2855 4.54986 12.3063 4.50909C12.3506 4.42994 12.3564 4.38597 12.3531 4.29484L12.3548 4.03422C12.3556 3.99264 12.3573 3.94468 12.3564 3.9071C12.3556 3.87033 12.3498 3.83835 12.3356 3.80637C12.3214 3.77519 12.2947 3.73922 12.2713 3.69205C12.2479 3.64488 12.2371 3.59052 12.2354 3.54175C12.2337 3.49299 12.2379 3.44182 12.2554 3.39146C12.2721 3.34109 12.3038 3.29872 12.3264 3.26514C12.374 3.19959 12.3798 3.13803 12.3765 3.04529C12.3765 2.96135 12.3648 2.87581 12.364 2.78547C12.3623 2.69593 12.3665 2.61279 12.3573 2.52725C12.3481 2.44171 12.3456 2.34977 12.3481 2.26343L12.3514 2.00281L12.3573 1.48157L12.3731 1.48477Z" fill="#080D10"/>
<path d="M14.8114 4.90785C14.8014 5.01018 14.8006 5.11091 14.7939 5.21484C14.7864 5.31797 14.7747 5.4187 14.7697 5.52103C14.7647 5.62336 14.7463 5.72969 14.7463 5.82323C14.7463 5.87039 14.7555 5.91676 14.7597 5.97272C14.7638 6.02789 14.7613 6.08305 14.7547 6.13661C14.7488 6.19018 14.7388 6.24694 14.7179 6.3013C14.697 6.35646 14.6778 6.39644 14.6686 6.43961C14.6578 6.48198 14.6528 6.52915 14.6478 6.57711C14.6427 6.62508 14.6402 6.66825 14.6419 6.71862C14.6419 6.77058 14.6394 6.82974 14.6294 6.88251C14.6185 6.93687 14.6068 6.98484 14.5943 7.0352C14.5692 7.13433 14.5425 7.23507 14.5049 7.3334L14.4891 7.331C14.4816 7.22627 14.4799 7.12474 14.4824 7.02081C14.4824 6.96965 14.4882 6.91688 14.4882 6.86892C14.4899 6.82015 14.4874 6.77698 14.4816 6.72581C14.4765 6.67385 14.4757 6.61469 14.4816 6.56112C14.4874 6.50756 14.4974 6.4532 14.5166 6.39724C14.5358 6.34127 14.5667 6.29011 14.586 6.25094C14.606 6.21016 14.6185 6.16619 14.6277 6.11903C14.6369 6.07106 14.6427 6.02389 14.6436 5.97672C14.6436 5.93035 14.6377 5.87519 14.6419 5.82003C14.6511 5.7089 14.677 5.61457 14.6895 5.51224C14.7045 5.41071 14.7271 5.30918 14.7446 5.20924C14.7605 5.10931 14.773 5.00618 14.7956 4.90625L14.8114 4.90785Z" fill="#F18721"/>
<path d="M19.187 4.56507C19.1219 4.65621 19.0426 4.73775 18.9716 4.82249C18.9365 4.86566 18.9048 4.91043 18.8681 4.9544C18.8322 4.99837 18.7879 5.03834 18.7436 5.07352C18.6535 5.13987 18.5967 5.23021 18.5232 5.31895C18.448 5.40689 18.3729 5.48443 18.3094 5.57477C18.2769 5.61794 18.2485 5.66271 18.2259 5.70988C18.2042 5.75705 18.1825 5.81301 18.1516 5.86337C18.1207 5.91374 18.0873 5.95931 18.0464 6.00487C18.0071 6.05044 17.9512 6.08882 17.9028 6.1176C17.8543 6.14638 17.8184 6.17516 17.7842 6.21353C17.7508 6.2519 17.7182 6.29667 17.6932 6.33984C17.6673 6.38301 17.6514 6.43098 17.6255 6.48694C17.5997 6.5421 17.5663 6.59247 17.5312 6.63884C17.4969 6.68441 17.461 6.72997 17.4218 6.77314C17.3825 6.81711 17.345 6.85469 17.3116 6.89626C17.2439 6.9794 17.178 7.06974 17.1153 7.16008C17.0828 7.20565 17.0494 7.25201 17.0151 7.29678C16.9784 7.34395 16.9525 7.37913 16.935 7.4199C16.9158 7.45827 16.9116 7.50464 16.8932 7.56859C16.8757 7.63175 16.8398 7.69171 16.8014 7.74048C16.7304 7.83081 16.6419 7.91476 16.5701 7.9899C16.4974 8.06745 16.4256 8.16179 16.3396 8.23853C16.2987 8.27691 16.2611 8.31528 16.2235 8.35605C16.1868 8.39602 16.1492 8.44159 16.1033 8.48077C16.0582 8.51994 16.0056 8.54872 15.9613 8.5799C15.9162 8.61107 15.8753 8.64865 15.8361 8.68942L15.8235 8.67983C15.8536 8.63266 15.8887 8.58629 15.9304 8.54632C15.973 8.50555 16.0164 8.47197 16.0507 8.432C16.0866 8.39283 16.1158 8.34886 16.15 8.30169C16.1834 8.25612 16.2194 8.20975 16.2561 8.16738C16.3287 8.08344 16.3872 7.9971 16.4598 7.90436C16.5367 7.81243 16.6085 7.73888 16.6719 7.64934C16.702 7.60937 16.7237 7.57179 16.7346 7.52862C16.7463 7.48705 16.7521 7.4215 16.7805 7.35914C16.8055 7.29758 16.8515 7.24402 16.884 7.20405C16.9183 7.16088 16.9517 7.11771 16.9851 7.07374C17.0535 6.9834 17.1237 6.89626 17.2005 6.80912C17.2398 6.76515 17.2823 6.72518 17.3199 6.6868C17.3575 6.64843 17.3934 6.60766 17.4285 6.56529C17.4619 6.52372 17.4919 6.48214 17.5145 6.43738C17.537 6.39341 17.5587 6.33585 17.5913 6.28468C17.6239 6.23352 17.6589 6.18875 17.7007 6.14318C17.7416 6.09841 17.7967 6.05924 17.8477 6.03206C17.8978 6.00487 17.937 5.97849 17.9729 5.94092C18.0088 5.90414 18.0422 5.86097 18.0714 5.817C18.1007 5.77383 18.1207 5.72667 18.1474 5.6739C18.1742 5.62194 18.2084 5.57317 18.2443 5.5284C18.3136 5.43966 18.3996 5.35892 18.4731 5.27978C18.5107 5.239 18.5441 5.19663 18.5833 5.15266C18.6217 5.10949 18.6668 5.07032 18.7136 5.03754C18.7595 5.00477 18.8013 4.97039 18.838 4.92962C18.8747 4.88964 18.9098 4.84488 18.9474 4.8033C19.0242 4.71936 19.1052 4.64421 19.1745 4.55627L19.187 4.56507Z" fill="#080D10"/>
<path d="M18.4689 9.91313C18.5073 9.89155 18.5474 9.87156 18.5892 9.85957C18.6309 9.84678 18.671 9.83799 18.7086 9.8212C18.7478 9.80681 18.7829 9.78522 18.8271 9.76843C18.8697 9.75165 18.919 9.74765 18.9607 9.75005C19.0017 9.75165 19.0351 9.74685 19.071 9.73406C19.1052 9.72127 19.1478 9.69808 19.1904 9.68449C19.2338 9.6693 19.2789 9.66451 19.3156 9.65491C19.3532 9.64532 19.3899 9.63173 19.4275 9.61414C19.4659 9.59735 19.5035 9.57976 19.5402 9.55978C19.5761 9.53979 19.6171 9.51501 19.658 9.49502C19.6989 9.47504 19.7406 9.46065 19.774 9.44386C19.8091 9.42627 19.8367 9.40468 19.8726 9.37271C19.9085 9.33993 19.9536 9.31035 19.9961 9.29196L20.1156 9.24239C20.189 9.20802 20.2742 9.16485 20.3527 9.13687C20.3903 9.12168 20.4245 9.10249 20.4571 9.07691C20.4896 9.05053 20.5297 9.01535 20.5715 8.99377C20.6132 8.97058 20.655 8.95619 20.6942 8.941L20.8144 8.89623L20.9338 8.85146C20.9723 8.83547 21.0232 8.81949 21.07 8.82908C21.1184 8.83707 21.1576 8.86346 21.1927 8.87385C21.2278 8.88504 21.2637 8.88184 21.3004 8.86745C21.338 8.85306 21.3739 8.83308 21.4048 8.8043C21.4357 8.77552 21.4674 8.73314 21.5075 8.70436C21.5459 8.67479 21.5902 8.65959 21.6277 8.64361C21.6661 8.62682 21.7029 8.60603 21.7388 8.57885C21.8114 8.52129 21.8949 8.48851 21.9751 8.46293C22.016 8.45014 22.0578 8.44214 22.0978 8.43175C22.1379 8.42136 22.178 8.40777 22.2181 8.39258L22.2214 8.40697C22.1822 8.42456 22.1421 8.44134 22.1012 8.45414C22.0603 8.46693 22.0202 8.47732 21.9809 8.49251C21.9016 8.52369 21.8248 8.55806 21.7563 8.61882C21.7213 8.6484 21.6812 8.67478 21.6419 8.69397C21.601 8.71396 21.5643 8.72915 21.5317 8.75713C21.4983 8.78271 21.4724 8.82188 21.4374 8.85946C21.4023 8.89623 21.3605 8.92261 21.3188 8.941C21.2762 8.96019 21.2269 8.96738 21.181 8.95459C21.1351 8.9426 21.0983 8.92022 21.0633 8.91702C21.0274 8.91222 20.9948 8.92341 20.9556 8.9418L20.8362 8.99297L20.7176 9.04253C20.6775 9.06012 20.6391 9.07611 20.6049 9.09689C20.5698 9.11688 20.5406 9.14486 20.503 9.17764C20.4654 9.21042 20.4228 9.236 20.3819 9.25439C20.3009 9.28956 20.2325 9.32953 20.1506 9.3735L20.0337 9.42947C19.9978 9.44785 19.9686 9.46944 19.9369 9.50062C19.9043 9.5318 19.8609 9.56857 19.8183 9.59096C19.774 9.61414 19.7365 9.62933 19.6989 9.64692C19.6613 9.66371 19.6262 9.68449 19.5853 9.70608C19.5452 9.72766 19.5035 9.74605 19.4634 9.76204C19.4225 9.77803 19.3782 9.79162 19.334 9.79961C19.2881 9.80681 19.2505 9.8092 19.2129 9.8188C19.1745 9.82679 19.1394 9.84278 19.0918 9.85557C19.0476 9.86836 18.9967 9.86756 18.9549 9.85877C18.914 9.85078 18.8798 9.84838 18.8413 9.85717C18.8046 9.86517 18.762 9.88275 18.7203 9.89075C18.6777 9.89954 18.6343 9.90034 18.5942 9.90434C18.5541 9.90914 18.5132 9.91793 18.4723 9.92912L18.4689 9.91313Z" fill="#A52422"/>
<path d="M18.1607 12.0972C18.2409 12.0924 18.3127 12.0788 18.382 12.0445C18.453 12.0109 18.5465 11.9893 18.6308 11.9925C18.7118 11.9925 18.7937 11.9989 18.8738 12.0077C18.9523 12.0173 19.0258 12.0245 19.1043 12.0277C19.1836 12.0325 19.2671 12.0405 19.3465 12.0533C19.4233 12.0669 19.4968 12.0772 19.5753 12.0852C19.6563 12.094 19.7464 12.1132 19.8224 12.142C19.8943 12.1692 19.9611 12.1836 20.037 12.1924C20.1164 12.2004 20.2015 12.2148 20.2792 12.2363C20.3544 12.2571 20.4262 12.2691 20.5038 12.2779C20.5798 12.2867 20.65 12.2859 20.726 12.2707C20.8053 12.2547 20.8946 12.2523 20.9748 12.2619C21.055 12.2707 21.1376 12.2867 21.2136 12.3123C21.2879 12.3371 21.3614 12.3523 21.4399 12.3611C21.5176 12.3707 21.5944 12.3747 21.6737 12.3699C21.7531 12.3651 21.8341 12.3691 21.9125 12.3787L21.9109 12.3938C21.8316 12.3898 21.7539 12.3906 21.6762 12.401C21.5969 12.4106 21.5159 12.4122 21.4357 12.4074C21.3564 12.4034 21.2729 12.3922 21.1961 12.3715C21.1209 12.3515 21.0466 12.3427 20.969 12.3387C20.8913 12.3339 20.8211 12.3395 20.746 12.3579C20.6675 12.3779 20.5773 12.3834 20.4963 12.3779C20.4162 12.3731 20.3318 12.3627 20.2533 12.3451C20.1773 12.3283 20.1055 12.3203 20.027 12.3155C19.946 12.3115 19.8558 12.2963 19.779 12.2723C19.7055 12.2499 19.6396 12.2411 19.5627 12.2379C19.4834 12.2323 19.3991 12.2244 19.3206 12.2124C19.2438 12.1996 19.1703 12.19 19.0918 12.182C19.0124 12.1724 18.9289 12.1596 18.8521 12.1428C18.777 12.1252 18.701 12.114 18.6242 12.102C18.5507 12.0908 18.4839 12.0932 18.407 12.1124C18.3277 12.1316 18.2384 12.1332 18.1615 12.114L18.1607 12.0972Z" fill="#080D10"/>
<path d="M17.6423 14.1783C17.8553 14.2231 18.0582 14.2855 18.2578 14.3654C18.3546 14.4054 18.4506 14.4446 18.5475 14.4933C18.6444 14.5429 18.7345 14.5917 18.8297 14.6348C18.8748 14.6556 18.9183 14.6716 18.965 14.6796C19.0109 14.6876 19.0719 14.6916 19.1278 14.7092C19.1846 14.7252 19.2347 14.75 19.2832 14.7739C19.3316 14.7979 19.38 14.8283 19.4234 14.8595C19.5044 14.9226 19.598 14.9618 19.6948 15.0122C19.79 15.0649 19.8743 15.1225 19.9712 15.1673L19.9645 15.1817C19.9144 15.1633 19.8643 15.1441 19.8159 15.1217C19.7675 15.0993 19.7207 15.0745 19.6731 15.0545C19.5788 15.0154 19.471 14.981 19.3792 14.9226C19.3341 14.8955 19.2907 14.8731 19.2431 14.8531C19.1955 14.8331 19.1479 14.8155 19.1011 14.8059C19.0544 14.7955 19.0076 14.7963 18.9483 14.7907C18.889 14.7851 18.8306 14.7683 18.778 14.7484C18.6769 14.7116 18.5767 14.6692 18.4799 14.6316C18.383 14.5941 18.2828 14.5533 18.1876 14.5045C18.0031 14.4078 17.8119 14.3143 17.6348 14.1919L17.6423 14.1783Z" fill="#080D10"/>
<path d="M13.2701 15.9938C13.3453 16.0793 13.4004 16.1824 13.4622 16.272C13.5256 16.3631 13.5916 16.4503 13.6692 16.5302C13.7085 16.5718 13.7477 16.6173 13.7811 16.6645C13.8162 16.7133 13.8446 16.7533 13.8813 16.7892C13.9156 16.8252 13.9582 16.8556 14.0057 16.9004C14.0517 16.9443 14.0901 16.9939 14.1235 17.0427C14.1552 17.0906 14.1869 17.141 14.2145 17.1922C14.2421 17.2441 14.2654 17.2897 14.2938 17.3353L14.3364 17.404C14.3523 17.428 14.3698 17.4592 14.3832 17.4903C14.4107 17.5535 14.4149 17.6294 14.4124 17.683C14.4107 17.7374 14.4141 17.7734 14.4324 17.8157C14.4491 17.8541 14.4834 17.9037 14.5126 17.9492C14.5727 18.0396 14.6403 18.1347 14.6996 18.2306C14.7614 18.325 14.8182 18.4249 14.875 18.5184C14.9334 18.6136 14.9927 18.7063 15.0587 18.7966C15.1271 18.8878 15.1831 18.9893 15.2474 19.0741C15.2791 19.1172 15.3184 19.1564 15.3551 19.2028C15.3918 19.2475 15.4244 19.2979 15.4545 19.3427C15.4837 19.3866 15.5179 19.4226 15.563 19.4514C15.6073 19.4794 15.6649 19.5074 15.7091 19.5513C15.7534 19.5945 15.7851 19.6449 15.8127 19.696C15.8402 19.7472 15.8561 19.8071 15.8636 19.8623C15.8711 19.9167 15.8845 19.967 15.9095 20.015C15.9338 20.0622 15.9672 20.1101 15.9939 20.1597C16.0214 20.2093 16.0431 20.2612 16.0674 20.3108C16.0916 20.3604 16.12 20.4091 16.1492 20.4563L16.1358 20.4643C16.1041 20.4179 16.0732 20.3708 16.0456 20.3212C16.0189 20.2716 15.9947 20.2213 15.9655 20.1741C15.9371 20.1261 15.9029 20.083 15.8736 20.0318C15.8436 19.9822 15.826 19.9239 15.816 19.8695C15.8052 19.8151 15.7901 19.7664 15.7626 19.72C15.7359 19.6736 15.7033 19.6297 15.6649 19.5953C15.6265 19.5601 15.578 19.5393 15.5238 19.5098C15.4695 19.4794 15.4227 19.4346 15.3877 19.3858C15.3534 19.3387 15.3234 19.2955 15.2875 19.2539C15.2524 19.2132 15.2106 19.1732 15.1731 19.1268C15.0979 19.0341 15.0428 18.9405 14.9727 18.8534C14.9025 18.7639 14.8374 18.6695 14.7748 18.576C14.7113 18.4801 14.6545 18.3873 14.5902 18.2954C14.5276 18.2027 14.46 18.1179 14.3915 18.0236C14.3589 17.9764 14.3247 17.9356 14.293 17.8733C14.2613 17.8149 14.2512 17.7374 14.2521 17.6814C14.2521 17.6247 14.2479 17.5871 14.2304 17.5479C14.2203 17.5279 14.2103 17.5103 14.1953 17.4871C14.1794 17.4632 14.1627 17.4392 14.1485 17.4136C14.1185 17.3632 14.0918 17.3089 14.0675 17.2617C14.0433 17.2145 14.0158 17.169 13.9865 17.1226C13.9582 17.077 13.9298 17.0355 13.8955 16.9995C13.863 16.9643 13.8137 16.9259 13.7728 16.8772C13.7327 16.83 13.7001 16.7756 13.6726 16.7309C13.6434 16.6845 13.6133 16.6405 13.5807 16.5958C13.5106 16.5046 13.4505 16.4055 13.3979 16.3048C13.372 16.2536 13.3511 16.2 13.3294 16.1505C13.3069 16.1001 13.2818 16.0505 13.2559 16.001L13.2701 15.9938Z" fill="#080D10"/>
<path d="M12.4692 17.5122C12.4917 17.5866 12.5193 17.6537 12.5644 17.7153C12.6103 17.78 12.6437 17.8624 12.6587 17.9415C12.6754 18.0175 12.6863 18.0982 12.6921 18.175C12.6971 18.2501 12.7063 18.3205 12.7197 18.3948C12.7456 18.5459 12.7639 18.6962 12.7798 18.8513C12.784 18.8921 12.784 18.9352 12.7798 18.9792C12.7756 19.0232 12.7648 19.0655 12.7564 19.1007C12.738 19.1703 12.7364 19.2334 12.7456 19.307C12.7539 19.3813 12.7689 19.4453 12.7957 19.5188C12.8224 19.594 12.8374 19.6787 12.8449 19.7531C12.8524 19.8266 12.8741 19.8874 12.91 19.9577C12.9468 20.0305 12.966 20.1144 12.9718 20.1928C12.981 20.2727 12.9627 20.3614 12.9343 20.431C12.9067 20.5006 12.9009 20.5709 12.91 20.6453C12.9167 20.7196 12.9426 20.7876 12.9852 20.8523C13.0294 20.9179 13.0553 20.9962 13.062 21.0722L13.0461 21.0738C13.0336 20.9986 13.0052 20.9291 12.9585 20.8683C12.9109 20.8067 12.875 20.73 12.8625 20.6516C12.8466 20.5749 12.8483 20.4886 12.8733 20.4134C12.8967 20.3391 12.905 20.2735 12.8925 20.2008C12.8825 20.1272 12.8633 20.0601 12.8274 19.9961C12.789 19.9313 12.7539 19.8466 12.7422 19.7683C12.7297 19.6907 12.7147 19.6252 12.6863 19.5564C12.6562 19.4868 12.6303 19.4021 12.6187 19.3246C12.6036 19.247 12.6003 19.1551 12.617 19.0751C12.6328 18.9984 12.6345 18.9408 12.622 18.8697C12.5986 18.721 12.5752 18.5683 12.5602 18.4164C12.5527 18.3396 12.5477 18.2573 12.5502 18.1797C12.5535 18.1038 12.551 18.0326 12.5468 17.9567C12.5427 17.884 12.5301 17.8184 12.4993 17.748C12.4684 17.6753 12.45 17.593 12.4533 17.5154L12.4692 17.5122Z" fill="#080D10"/>
<path d="M8.84767 15.3894C8.8126 15.4341 8.77502 15.4773 8.73327 15.5173C8.69152 15.5573 8.64977 15.594 8.6122 15.6348C8.57379 15.674 8.54039 15.7164 8.4978 15.7603C8.45688 15.8035 8.40344 15.8419 8.35501 15.8722C8.30658 15.9018 8.26984 15.9314 8.23226 15.969C8.19719 16.0042 8.15795 16.0513 8.11453 16.0921C8.07194 16.1345 8.02268 16.1712 7.98343 16.2056C7.94335 16.2408 7.90661 16.2784 7.86987 16.3191C7.79221 16.3991 7.72959 16.4822 7.6511 16.5734C7.61268 16.6173 7.56926 16.6573 7.53586 16.6949C7.50079 16.7341 7.47491 16.7716 7.44568 16.8204C7.41562 16.87 7.37638 16.9227 7.33546 16.9659L7.21689 17.0882C7.14341 17.1674 7.06408 17.2577 6.98392 17.336C6.94551 17.3744 6.91211 17.4144 6.88288 17.4576C6.85449 17.5007 6.82193 17.5543 6.78268 17.5999C6.70335 17.691 6.62236 17.7653 6.54136 17.8461L6.42112 17.9644C6.38354 18.0036 6.33511 18.0499 6.27833 18.0795C6.22072 18.1107 6.15893 18.1227 6.113 18.1419C6.0654 18.1611 6.02449 18.1907 5.98691 18.2282C5.9485 18.2666 5.91427 18.3066 5.88838 18.3521C5.86249 18.3969 5.84078 18.4529 5.80488 18.5008C5.77148 18.5496 5.72722 18.5904 5.68965 18.6296C5.65124 18.6695 5.617 18.7119 5.58527 18.7575C5.52181 18.8526 5.43914 18.9341 5.35564 19.0109C5.27047 19.0876 5.18112 19.1564 5.10263 19.2371L5.09094 19.2267C5.16526 19.142 5.25377 19.0668 5.3331 18.9885C5.41242 18.9078 5.48757 18.8262 5.54436 18.7319C5.57442 18.6839 5.60865 18.6367 5.64623 18.5936C5.68464 18.5496 5.72221 18.5112 5.7506 18.4665C5.78066 18.4225 5.79653 18.3729 5.82408 18.3194C5.85081 18.2666 5.88838 18.2178 5.92763 18.1755C5.96771 18.1315 6.01948 18.0907 6.07793 18.0651C6.13721 18.0396 6.19066 18.0276 6.23241 18.002C6.27666 17.9764 6.31006 17.9428 6.34931 17.8989L6.46621 17.7749C6.54303 17.6942 6.6257 17.6111 6.69166 17.5303C6.72423 17.4887 6.74844 17.4456 6.78018 17.3936C6.81191 17.3424 6.85032 17.2953 6.8904 17.2521C6.96889 17.169 7.03402 17.0866 7.11001 16.9971L7.2219 16.8716C7.25613 16.8308 7.28285 16.7924 7.30874 16.7444C7.33546 16.6965 7.37137 16.6397 7.41061 16.5941C7.45153 16.547 7.4891 16.5078 7.52584 16.467C7.59682 16.3887 7.67114 16.2936 7.75297 16.2128C7.79388 16.172 7.83814 16.1313 7.88657 16.0937C7.935 16.0561 7.97926 16.0257 8.01934 15.9914C8.06109 15.957 8.09699 15.9194 8.14459 15.8778C8.18968 15.8379 8.2473 15.8019 8.2999 15.7771C8.35167 15.7523 8.39426 15.7283 8.43601 15.6932C8.47692 15.6604 8.51867 15.618 8.56377 15.5812C8.60969 15.5445 8.65896 15.5133 8.70488 15.4813C8.75081 15.4485 8.79423 15.4134 8.83765 15.3766L8.84767 15.3894Z" fill="#080D10"/>
<path d="M4.6076 14.9898C4.67942 14.9578 4.75707 14.9338 4.83557 14.921C4.91322 14.9082 4.98587 14.8859 5.05685 14.8547L5.48855 14.6668C5.63218 14.6076 5.77246 14.5373 5.91943 14.4773C5.99374 14.4454 6.08393 14.423 6.16409 14.4174C6.24008 14.411 6.30437 14.3926 6.37368 14.363C6.51814 14.3007 6.6651 14.2423 6.80622 14.1791C6.87553 14.1504 6.9248 14.1184 6.98158 14.0688C7.01164 14.044 7.04838 14.0153 7.08763 13.9937C7.12687 13.9721 7.16695 13.9545 7.2062 13.9393C7.28302 13.9113 7.37571 13.8897 7.45754 13.8873C7.53436 13.8857 7.59949 13.8722 7.67298 13.8498C7.82328 13.801 7.97693 13.761 8.13057 13.7227L8.13641 13.737C7.99864 13.8146 7.85752 13.8833 7.71556 13.9505C7.64375 13.9865 7.55357 14.0121 7.47341 14.0225C7.39742 14.0328 7.33563 14.0512 7.26716 14.0816C7.19868 14.1112 7.14691 14.1416 7.09097 14.1895C7.06174 14.2143 7.02416 14.2423 6.98575 14.2639C6.94734 14.2863 6.90726 14.3039 6.86718 14.319L6.42211 14.4757C6.34612 14.5045 6.25511 14.5253 6.17327 14.5277C6.09562 14.5301 6.02965 14.5429 5.95784 14.5693C5.81171 14.6212 5.66725 14.6836 5.51778 14.7372L5.07355 14.8963C4.9984 14.9234 4.91823 14.9434 4.83891 14.9506C4.76041 14.9578 4.6861 14.9762 4.61178 15.0026L4.6076 14.9898Z" fill="#080D10"/>
<path d="M2.28943 11.4771C2.34955 11.4786 2.41051 11.4906 2.46395 11.5194C2.5174 11.5474 2.56249 11.585 2.61509 11.6034C2.6677 11.6226 2.72448 11.6273 2.7821 11.6249C2.83972 11.6234 2.894 11.6122 2.94744 11.5914C3.00088 11.5706 3.06351 11.5506 3.1253 11.5474C3.18793 11.5434 3.24638 11.5474 3.30567 11.5474C3.42257 11.5482 3.54282 11.545 3.66139 11.5482L4.37033 11.5626C4.48891 11.5634 4.60915 11.5722 4.72105 11.5658C4.77699 11.5626 4.83712 11.5546 4.89891 11.553C4.95987 11.5506 5.02333 11.553 5.07928 11.5538C5.13773 11.5546 5.19284 11.5522 5.25129 11.5482C5.31058 11.5434 5.37404 11.541 5.43417 11.5418C5.49011 11.5418 5.56777 11.5418 5.63708 11.5722C5.70806 11.6002 5.75816 11.6497 5.7974 11.6769C5.83665 11.7049 5.87256 11.7185 5.92015 11.7217C5.96775 11.7249 6.01368 11.7209 6.05209 11.7041C6.09134 11.6897 6.13643 11.6529 6.20323 11.6218C6.27003 11.5906 6.35187 11.5818 6.41533 11.5874L6.76938 11.6138L6.8579 11.621C6.89046 11.6242 6.9247 11.6281 6.9581 11.6377C7.02657 11.6545 7.08753 11.6985 7.13012 11.7321C7.17354 11.7657 7.21529 11.7864 7.26706 11.7968C7.31883 11.8072 7.37562 11.8096 7.42655 11.7992C7.47833 11.7912 7.52926 11.7633 7.58938 11.7441C7.64867 11.7233 7.71297 11.7217 7.77226 11.7297L7.77142 11.7449C7.71297 11.7481 7.65619 11.7601 7.60692 11.7848C7.55765 11.8088 7.50922 11.8472 7.44576 11.8672C7.3823 11.8872 7.318 11.8904 7.25287 11.8848C7.18773 11.88 7.11843 11.8528 7.06582 11.82C7.01321 11.7872 6.97313 11.7665 6.92553 11.7569C6.90215 11.7521 6.8771 11.7505 6.85122 11.7497L6.76187 11.7489L6.40698 11.7401C6.3527 11.7377 6.31345 11.7433 6.27337 11.7625C6.23329 11.78 6.1882 11.82 6.11806 11.8504C6.04791 11.8816 5.97109 11.884 5.90262 11.8768C5.83164 11.8712 5.75398 11.8392 5.70054 11.7968C5.6471 11.7553 5.6137 11.7201 5.57445 11.7033C5.5352 11.6841 5.49178 11.6809 5.42999 11.6785C5.37237 11.6753 5.31726 11.6753 5.25797 11.6769C5.19869 11.6793 5.13522 11.6785 5.0751 11.6753C5.01331 11.6721 4.9582 11.6681 4.90141 11.6689C4.84547 11.6689 4.78785 11.6745 4.72522 11.6761C4.6008 11.6785 4.4839 11.6657 4.36616 11.6609L3.65721 11.6234C3.53948 11.6146 3.42341 11.6122 3.30316 11.6066C3.24387 11.6042 3.18375 11.5978 3.12864 11.5994C3.07186 11.601 3.02008 11.6146 2.9633 11.6329C2.90652 11.6521 2.84306 11.6625 2.7821 11.6617C2.72198 11.6617 2.65852 11.6537 2.60173 11.6297C2.54412 11.6058 2.49986 11.565 2.45059 11.537C2.40216 11.5082 2.34538 11.4938 2.28693 11.4898L2.28943 11.4771Z" fill="#080D10"/>
</svg>
